<?xml version="1.0" encoding="UTF-8"?>
<svg viewBox="0 0 417.18857 286.48813" xmlns="http://www.w3.org/2000/svg">
 <g transform="translate(-57.954 -66.981)">
  <path d="m280.59 352.47c0-0.55 2.4484-1 5.441-1s5.7191 0.45 6.059 1c0.38605 0.62464-1.6563 1-5.441 1-3.3727 0-6.059-0.44336-6.059-1zm-41.762-0.68708c0.95609-0.25029 2.7561-0.25937 4-0.0202s0.46166 0.44398-1.7383 0.45508-3.2178-0.18461-2.2617-0.4349zm-45.788-3.2618c-0.5225-0.52188-3.423-1.191-6.4456-1.4869s-5.6476-0.9939-5.8333-1.5511-1.5002-1.0132-2.921-1.0132-2.3018-0.28155-1.9577-0.62566 4.18-0.0484 8.5242 0.65704c5.6301 0.91431 8.2291 1.812 9.0495 3.1257 1.2547 2.0091 1.0788 2.3871-0.416 0.8941zm20.55-0.0511c0-1.2644 2.0435-1.2644 4 0 1.1689 0.75538 0.89294 0.97275-1.25 0.98469-1.5125 8e-3 -2.75-0.43469-2.75-0.98469zm10.25 0.31067c0.9625-0.25152 2.5375-0.25152 3.5 0s0.175 0.45733-1.75 0.45733-2.7125-0.2058-1.75-0.45733zm13.75-1.3744c-4.675-0.31003-6.5125-0.64753-4.0833-0.75 7.7171-0.32552 3.7867-1.1853-7.5868-1.6597-6.0436-0.25207-11.818-0.77679-12.833-1.1661-1.4859-0.57019-1.7095-0.35634-1.1506 1.1002 0.61518 1.6031 0.26663 1.7407-3.0764 1.2144-2.0736-0.3265-7.1452-1.0954-11.27-1.7086s-7.95-1.579-8.5-2.1461c-0.68293-0.70415-0.0488-0.85809 2-0.48549 1.65 0.30007 6.6 0.75784 11 1.0173s6.2134 0.17382 4.0298-0.19023l-3.9702-0.66192 2.7952-1.2627c1.5373-0.69449 3.099-1.0767 3.4702-0.84932 1.1983 0.73379 23.094 1.6842 45.675 1.9825 20.653 0.27285 56.303-1.2613 55.171-2.3743-0.28174-0.27709 3.1069-0.33945 7.5303-0.13857 5.6632 0.25718 8.2695-2e-3 8.8097-0.87599 0.95355-1.5429 19.778-1.9552 21.989-0.48164 1.0588 0.70588-2.0294 1.1471-10.5 1.5-8.8595 0.36915-11.935 0.82713-11.75 1.75 0.151 0.75502-0.83896 1.2558-2.5 1.2645-1.5125 8e-3 -10.625 0.50037-20.25 1.0942s-26.95 1.413-38.5 1.8205l-21 0.74082 22 0.29611c16.978 0.22852 20.63 0.48879 16 1.1402-6.2767 0.88304-28.958 0.79438-43.5-0.17004zm61.5 0.0637c0.33992-0.55 1.293-1 2.118-1s1.2219 0.45 0.88197 1-1.293 1-2.118 1-1.2219-0.45-0.88197-1zm-10.769-0.65594c0.67703-0.27392 2.027-0.29059 3-0.0371s0.41903 0.47766-1.231 0.49804-2.4461-0.18706-1.769-0.46099zm-96.981-6.0725c-2.0625-0.21574-3.75-0.77228-3.75-1.2367s-1.7417-0.61087-3.8704-0.32535c-2.3045 0.30909-4.1477 0.0703-4.5559-0.59015-0.46125-0.74633 0.55971-1.0616 3.1204-0.96367 2.0932 0.0801 4.9309-0.14302 6.3059-0.49578s1.9375-0.38303 1.25-0.0673c-2.4557 1.1278-1.1872 2.4094 2.5 2.5258 2.0625 0.0651 5.1 0.46184 6.75 0.88169l3 0.76337-3.5-0.0498c-1.925-0.0274-5.1875-0.2263-7.25-0.44205zm51.807-1.0115c-2.1685-0.22206-3.4484-0.70892-2.8443-1.0819s-3.2466-0.64087-8.5572-0.59533c-10.279 0.0882-26.053-0.9447-32.656-2.1383-2.2-0.39771-7.669-0.77293-12.153-0.83383s-7.9077-0.50891-7.6076-0.99561c0.30909-0.50127-1.5753-0.59177-4.3468-0.20874-3.7118 0.51299-4.5304 0.40683-3.3924-0.43993 1.1488-0.85479 0.56358-0.96063-2.5-0.45207-2.2 0.36521-3.636 0.29736-3.1911-0.15078s-2.2551-1.3279-6-1.9551c-7.3139-1.2249-9.118-1.0467-5.0525 0.49894 1.3936 0.52984 2.6935 1.3749 2.8887 1.878s3.0549 1.8466 6.3549 2.9857c5.8814 2.0301 5.9255 2.0726 2.233 2.15-4.0068 0.084-21.494-3.4622-33.556-6.8046-4.0014-1.1088-7.9283-1.7655-8.7264-1.4593s-1.4511 0.0321-1.4511-0.60917-0.41891-0.90711-0.9309-0.59068-1.2249 0.0997-1.5842-0.48166-1.5717-0.76547-2.6943-0.40917c-1.453 0.46118-1.8249 0.29798-1.2906-0.56646 0.54509-0.88198 0.13461-1.0188-1.5-0.5-1.3868 0.44015-2.0175 0.3373-1.6434-0.26799 0.6426-1.0398-7.9106-3.878-10.207-3.387-0.84769 0.18125-1.0658-0.17168-0.58596-0.9481 0.533-0.86241 0.26066-1.0435-0.89964-0.59826-0.91646 0.35167-1.664 0.15532-1.664-0.43705s-0.69837-0.80762-1.5519-0.48007c-0.88992 0.34149-1.2913 0.17385-0.94098-0.39301 0.54044-0.87446-1.6246-1.3998-3.0436-0.73855-0.29507 0.1375-0.85757-0.25446-1.25-0.87102-0.83306-1.3088-13.358-7.8705-14.464-7.5776-0.4125 0.10924-0.75-0.14368-0.75-0.56205s-2.5296-2.7792-5.6214-5.2463-6.9188-6.3713-8.5045-8.676c-3.7554-5.4582-6.2497-15.134-5.3203-20.638 0.78711-4.6615 5.4458-12.525 10.291-17.37 4.5886-4.5886 16.112-11.519 27.68-16.647 10.554-4.6785 34.336-12.662 37.719-12.662 1.4246 0 1.8427-0.49676 1.4728-1.75-11.145-37.771-15.551-62.865-17.775-101.25-0.58947-10.175-1.3019-20.3-1.5832-22.5-1.3232-10.35 12.436-19.462 40.641-26.913 25.467-6.728 52.381-9.2302 107.5-9.994 67.374-0.93365 112.13 6.2191 130.82 20.907 6.6658 5.2383 6.835 6.0324 6.1294 28.776l-0.62743 20.224 14.838 0.21639c17.717 0.25836 28.35 2.1063 36.203 6.292 25.404 13.54 31.736 50.188 12.299 71.182-5.9983 6.4789-10.801 9.6494-19.163 12.65-10.445 3.7476-15.663 4.433-29.789 3.9132l-13.568-0.49931 11.009 3.7151c25.092 8.4674 42.386 19.349 49.687 31.264 3.791 6.1867 3.8338 6.3702 3.3669 14.416-0.41171 7.0947-0.88234 8.7449-3.6348 12.746-4.1904 6.0905-9.259 10.917-16.289 15.51-3.1748 2.0744-5.4509 4.093-5.0581 4.4858s0.0236 0.44922-0.8204 0.12533c-0.89348-0.34286-2.6998 0.49094-4.3235 1.9958-1.5339 1.4216-3.2765 2.4222-3.8724 2.2235s-1.9407 0.49607-2.9884 1.5438c-1.0942 1.0942-2.7168 1.6926-3.8125 1.4061-1.0492-0.27436-1.9076-0.0712-1.9076 0.45139s-0.5625 0.84497-1.25 0.71634-6.8903 1.6263-13.784 3.8998c-16.114 5.3142-36.728 10.542-39.111 9.9188-1.8776-0.49102-2.6822 0.87906-0.87742 1.4943 0.53782 0.18333-1.7122 0.38307-5 0.44387s-5.9778-0.21482-5.9778-0.61249-1.125-0.59953-2.5-0.44859-2.5-0.13595-2.5-0.63752 0.5625-0.94294 1.25-0.98084 2.4804-0.23144 3.9842-0.43009 2.9929 0.0573 3.309 0.5689c0.8707 1.4088 4.1305 1.1136 5.7663-0.52229 0.79881-0.79881 1.8286-1.1363 2.2885-0.75s0.19338-0.13324-0.59214-1.1546c-1.1851-1.5408-2.286-1.754-6.467-1.2526-2.7714 0.33239-7.7388 0.86432-11.039 1.182s-6.925 1.0231-8.0554 1.5674-2.4805 0.88096-3 0.74801c-2.8565-0.73101-26.652 1.9645-26.048 2.9506 0.22297 0.36376-11.318 0.81077-25.646 0.99336s-27.138 0.74508-28.466 1.25c-2.38 0.90487-8.0075 0.96859-15.727 0.17806zm-13.307-4.9223c-0.6875-0.27741-1.8125-0.27741-2.5 0s-0.125 0.50439 1.25 0.50439 1.9375-0.22698 1.25-0.50439zm62.481-0.0307c-0.97297-0.25354-2.323-0.23687-3 0.0371s0.11903 0.48137 1.769 0.46099 2.2039-0.2445 1.231-0.49804zm-70.543-0.99012c-0.72188-0.28887-1.5844-0.25335-1.9167 0.0789s0.25834 0.56864 1.3125 0.52522c1.165-0.048 1.4019-0.28494 0.60417-0.60416zm28.562-6e-3c-0.9625-0.25152-2.5375-0.25152-3.5 0s-0.175 0.45733 1.75 0.45733 2.7125-0.2058 1.75-0.45733zm21.5-0.0511c-3.4375-0.19527-9.0625-0.19527-12.5 0s-0.625 0.35504 6.25 0.35504 9.6875-0.15977 6.25-0.35504zm-58.192-1.399c-1.893-0.55945-4.5412-1.882-5.8849-2.9389-1.4672-1.1543-4.0106-1.9219-6.3672-1.9219-2.4274 0-3.6823-0.39128-3.2901-1.0259 0.34871-0.56423-0.7931-1.5234-2.5374-2.1314-2.3927-0.8341-2.8408-1.3349-1.825-2.0396 0.92973-0.64503 0.6501-0.73823-0.90363-0.30119-2.3805 0.66961-6.8003-0.28489-5.8268-1.2584 0.59531-0.59531-8.4097-4.1396-11.923-4.6928-3.3209-0.52291-5.5215-1.707-4.9352-2.6555 0.3043-0.49237-0.14828-0.95147-1.0057-1.0202s-1.8965-0.21794-2.309-0.33153l-3.75-1.0188c-1.65-0.44675-4.8875-1.6854-7.1945-2.7525s-5.007-1.7781-6-1.5799c-1.4106 0.28151-0.9345 0.9561 2.1766 3.084 2.1902 1.498 3.668 2.7237 3.2839 2.7237-1.4481 0-7.7661-3.4048-7.7661-4.1852 0-2.0528-1.9415-0.46546-3.5899 2.9352-1.3756 2.8378-1.9114 3.305-2.2025 1.9209-0.21157-1.006 0.14697-3.1126 0.79678-4.6814 0.93017-2.2456 2.2128-3.1166 6.0305-4.0951 4.2369-1.0859 4.7257-1.4733 3.8719-3.0686-0.64809-1.211-0.63496-1.8258 0.039-1.8258 0.55888 0 1.2727 1.0222 1.5863 2.2716 0.49458 1.9706 1.0926 2.2217 4.5135 1.8955 2.465-0.23508 3.6965-0.77548 3.2849-1.4415-0.4192-0.6783-0.0241-0.822 1.0874-0.3955 0.96021 0.36847 1.9606 0.66994 2.2231 0.66994s0.23027 0.39959-0.0716 0.88799 1.5291 1.1996 4.0688 1.5804 5.3476 0.92371 6.2398 1.2064c1.4041 0.4448 1.4205 0.36882 0.12215-0.56513-0.825-0.59347-1.1074-1.0859-0.62756-1.0943s0.29642-0.70938-0.40761-1.5577c-1.0413-1.2547-1.0368-1.7677 0.0243-2.75 0.91606-0.84815 1.1097-0.86054 0.65052-0.0416-0.67365 1.2014 5.1979 7.8299 6.1194 6.9083 0.2835-0.2835-0.9439-1.8787-2.7276-3.5449s-2.9398-3.0295-2.5692-3.0295-0.30072-1.3686-1.4918-3.0414c-1.5291-2.1475-2.5149-2.7516-3.3538-2.0554-0.84549 0.7017-1.1881 0.44644-1.1881-0.88514 0-1.0292 0.35863-1.6495 0.79696-1.3786s-2.7513-4.8246-7.0881-11.323-9.2397-14.291-10.895-17.316c-3.9221-7.1659-12.242-23.666-12.242-24.279 0-0.2622-0.66968-2.0795-1.4882-4.0384l-1.4882-3.5617-6.7918 1.8821c-9.0848 2.5175-26.806 8.3764-31.573 10.438-2.1124 0.91378-3.5595 1.2064-3.2158 0.65017 0.40839-0.66079-0.42617-0.64482-2.4081 0.0461-1.6682 0.58153-2.7939 1.4443-2.5016 1.9173 0.61594 0.99661-4.9949 4.1508-5.8545 3.2912-0.74301-0.74301-7.7064 3.5446-7.4068 4.5606 0.2517 0.85358-5.6146 6.0934-6.8219 6.0934-0.41835 0 0.087-1.0125 1.123-2.25s0.16241-0.675-1.9414 1.25c-4.0637 3.7184-9.6543 12.497-9.5527 15 0.0403 0.99335 0.35119 0.82447 0.92033-0.5 0.67818-1.5782 0.87713-1.1564 0.94337 2 0.11396 5.4304 1.0657 8.6124 2.3403 7.8247 0.63444-0.39211 0.82664-0.0544 0.48127 0.84557-0.71936 1.8746 4.0099 8.0869 5.4696 7.1848 0.59547-0.36802 0.78764-0.1999 0.43103 0.3771-0.35392 0.57267 0.11293 1.6547 1.0374 2.4045 1.4455 1.1723 1.5548 1.1543 0.78055-0.12847-0.49522-0.82047 0.67214 0.0795 2.5941 2 3.8168 3.8138 15.237 10.343 16.275 9.3054 0.35583-0.35587 0.64697-0.15613 0.64697 0.44383 0 1.356 16.998 8.0306 31 12.173 5.775 1.7084 11.85 3.584 13.5 4.1681 6.3234 2.2384 14.264 3.7764 16.491 3.194 1.7462-0.45664 2.1223-0.28398 1.5166 0.69612-0.62028 1.0036-0.17454 1.145 1.9382 0.61473 1.509-0.37875 6.4137-0.0181 10.899 0.80138 7.5898 1.3867 21.1 2.5968 33.351 2.9874 2.8575 0.0911 5.4085 0.3777 5.669 0.6369s2.6476 0.55627 5.3046 0.66015c4.7664 0.18636 4.785 0.17528 1.3892-0.82829zm-66.558-36.861c-0.33992-0.55-0.14148-1 0.44098-1s1.059 0.45 1.059 1-0.19844 1-0.44098 1-0.7191-0.45-1.059-1zm87.417 37.639c-0.22917-0.19846-2.4417-0.6286-4.9167-0.95585-3.0048-0.3973-3.8355-0.30076-2.5 0.29056 1.9099 0.84565 8.2853 1.4175 7.4167 0.66529zm57.583-0.62944c1.2446-0.52879-0.0773-0.63817-3.5-0.2896-3.025 0.30806-5.6875 0.72205-5.9167 0.91999-0.86085 0.74355 7.5002 0.18382 9.4167-0.63039zm15.5-0.01c0-1.2529-1.0612-1.2529-3 0-1.213 0.78387-1.0694 0.9723 0.75 0.98469 1.2375 8e-3 2.25-0.43469 2.25-0.98469zm64.188 0.31689c-0.72188-0.28887-1.5844-0.25335-1.9167 0.0789s0.25834 0.56864 1.3125 0.52522c1.165-0.048 1.4019-0.28494 0.60417-0.60416zm-221.23-1.2713c1.0596-0.67022 0.57922-0.89874-1.75-0.83251-1.7658 0.0502-3.2105 0.4728-3.2105 0.9391 0 1.1236 3.1217 1.0565 4.9605-0.10659zm139.79-1.4017c1.7875-0.93239 3.25-1.9621 3.25-2.2883s-6.1875-0.31351-13.75 0.0281c-14.613 0.66008-32.709 0.7935-45.577 0.33604-4.3051-0.15304-8.088 0.14329-8.4064 0.65851-0.3256 0.52683 0.3437 0.69548 1.5295 0.38539 1.1596-0.30325 2.2695-0.0681 2.4664 0.52263 0.46737 1.4021 16.482 2.2811 39.238 2.1536 14.839-0.0831 18.571-0.39852 21.25-1.796zm35.25 1.0644c2.1989-0.80137 12.901-1.7438 26-2.2895 6.325-0.26352 12.266-0.64278 13.202-0.84278s1.8455 0.0667 2.0208 0.59258c0.37756 1.1327 5.7772-0.68335 5.7772-1.943 0-0.45317-1.6875-0.66028-3.75-0.46023-4.9871 0.48371-2.3847-1.4009 3.2295-2.3387 2.2113-0.36937 4.3511-1.179 4.7552-1.7991 0.46366-0.71159 0.74033-0.48197 0.75 0.62247 8e-3 0.9625 0.46027 1.75 1.0041 1.75 1.3684 0 0.84848-4.8485-0.57865-5.3961-0.63669-0.24432-1.4797-2.1676-1.8734-4.2741-0.84116-4.5008-1.883-5.9404-5.7441-7.937-2.5324-1.3095-3.0262-1.3021-4.3943 0.0659-0.8477 0.8477-2.0716 1.5438-2.7198 1.5468s-2.8966 0.48265-4.9964 1.0657c-3.0337 0.84241-3.5886 1.3365-2.7014 2.4054 0.82731 0.99685 0.80488 1.5378-0.0866 2.0888-0.73538 0.45449-0.94229 0.32159-0.53225-0.34187 1.325-2.144-1.2686-2.1917-6.0215-0.11074-2.6622 1.1656-8.4403 3.4081-12.84 4.9834s-7.1 2.8868-6 2.9144c3.3403 0.0837-0.35691 1.6375-5.5 2.3114-3.0105 0.39446-3.838 0.2965-2.5-0.29595 1.2759-0.56494 1.4569-0.88556 0.5-0.88556-0.825 0-2.4 0.38674-3.5 0.85943-1.7102 0.7349-1.7464 0.86961-0.25 0.92971 3.1565 0.12678 1.8258 1.5424-2.8861 3.0703-2.5442 0.825-4.6099 1.95-4.5904 2.5s-0.45944 1.3059-1.0643 1.6797c-1.2744 0.78762 13.048 0.34607 15.291-0.47142zm-2.5-4.7083c-0.33992-0.55-0.14148-1 0.44098-1s1.059 0.45 1.059 1-0.19844 1-0.44098 1-0.7191-0.45-1.059-1zm55 4.9144c1.665-0.78676 1.5438-0.85668-0.72336-0.41735s-2.6136 0.24172-2.0596-1.2019c0.58844-1.5334 0.48456-1.5632-0.91597-0.26236-1.1238 1.0438-1.2509 1.6793-0.44036 2.2019 1.3832 0.89191 1.6113 0.87426 4.1393-0.32034zm-234.15-3.047c-3.0123-1.1854-3.4308-0.9745-2.1466 1.0818 0.9509 1.5226 1.521 1.697 2.6054 0.79709 1.1612-0.96369 1.0862-1.2709-0.4588-1.8789zm80.653 2.1326c0-0.55-0.93691-1-2.082-1s-5.4557-1.1644-9.579-2.5876c-7.9182-2.733-11.516-2.7564-4.1497-0.027 12.672 4.6954 15.811 5.4129 15.811 3.6146zm-59.812-0.68311c-0.72188-0.28887-1.5844-0.25335-1.9167 0.0789s0.25834 0.56864 1.3125 0.52522c1.165-0.048 1.4019-0.28494 0.60417-0.60416zm143.03-1.4683c1.2532-0.68883 2.7286-1.344 3.2786-1.4561s2.125-0.66762 3.5-1.2347l2.5-1.0311-2.5-0.0629c-1.375-0.0346-4.975 0.89818-8 2.0728-3.025 1.1746-6.85 2.5165-8.5 2.982-2.312 0.65221-1.8026 0.74723 2.2214 0.4143 2.8718-0.2376 6.2468-0.99558 7.5-1.6844zm-171.22-0.3486c0-0.825-0.17686-1.5-0.39301-1.5s-0.65203 0.675-0.96862 1.5-0.13972 1.5 0.39301 1.5 0.96862-0.675 0.96862-1.5zm12.188 0.81689c-0.72187-0.28887-1.5844-0.25335-1.9167 0.0789s0.25834 0.56864 1.3125 0.52522c1.165-0.048 1.4019-0.28494 0.60417-0.60416zm12 0c-0.72188-0.28887-1.5844-0.25335-1.9167 0.0789s0.25834 0.56864 1.3125 0.52522c1.165-0.048 1.4019-0.28494 0.60417-0.60416zm226.32-0.32456c0.67532-1.0927-1.7503-3.9923-3.3397-3.9923-0.5378 0-0.75211 0.86309-0.47625 1.918 0.37079 1.4179-0.1099 2.0342-1.8436 2.3638-1.593 0.30285-1.1614 0.48952 1.3458 0.58203 2.03 0.0749 3.9712-0.31727 4.3138-0.87149zm-259.89-3.7119c-0.32703-0.32702-1.6114-0.06-2.8542 0.59343s-1.4865 0.96875-0.54161 0.70076 2.0398 0.0334 2.4331 0.66982c0.52755 0.8536 0.82555 0.82575 1.1362-0.10617 0.2316-0.69479 0.15352-1.5308-0.1735-1.8578zm253.21 1.7411c-1.4694-0.44363-3.2694-1.1663-4-1.606-1.0501-0.63194-1.0408-0.44496 0.0441 0.89256 0.75485 0.93058 2.5548 1.6533 4 1.606l2.6276-0.086-2.6717-0.80661zm-110.83-2.0493c0-0.66199-4.3027-0.93145-12.089-0.7571-13.898 0.31122-12.197 1.5366 2.3391 1.6852 6.0738 0.0621 9.75-0.28785 9.75-0.92813zm-149.63-1.2701c0.34731 0.34732 0.63148 0.10648 0.63148-0.53518s-1.05-1.1667-2.3333-1.1667c-1.3687 0-2.3333 0.59781-2.3333 1.446 0 1.0517 0.4641 1.1976 1.7018 0.53518 0.93602-0.50094 1.986-0.62664 2.3333-0.27932zm115.63 0.18189c-3.575-0.46344-8.525-1.0523-11-1.3085-8.3877-0.86839-19.486-2.6288-22.5-3.5688l-7.6953-2.3918c-2.5824-0.80078-5.7324-1.2385-7-0.97262-2.2598 0.47394-2.256 0.4522 0.19533-1.117l2.5-1.6003-3.5 0.66329c-1.925 0.36481-3.8269 1.1693-4.2265 1.7877-0.88779 1.374 6.0717 3.6667 11.477 3.7809 2.0625 0.0436 3.75 0.42147 3.75 0.83977 0 1.6349 24.405 4.6107 38.5 4.6944l6 0.0356-6.5-0.84261zm38.25 0.45398c-0.6875-0.27741-1.8125-0.27741-2.5 0s-0.125 0.50439 1.25 0.50439 1.9375-0.22698 1.25-0.50439zm114.94-0.0208c-0.72188-0.28887-1.5844-0.25335-1.9167 0.0789s0.25834 0.56864 1.3125 0.52522c1.165-0.048 1.4019-0.28494 0.60417-0.60416zm-87.688-1.2595 4-0.82737-3.5-0.0153c-1.925-8e-3 -4.625 0.34497-6 0.78532-2.0219 0.64753-2.1175 0.80868-0.5 0.84269 1.1 0.0231 3.8-0.33027 6-0.78532zm92-2.6033c15.769-4.3606 37.446-12.932 39.263-15.525 1.402-2.0017 3.8742-2.7679 2.6762-0.82949-1.0381 1.6796 7.3594-3.2472 10.653-6.2503 1.5994-1.4582 2.9079-2.377 2.9079-2.0418s2.0055-1.3588 4.4566-3.7644 4.2246-4.7493 3.941-5.2082-0.11133-0.83435 0.38285-0.83435c1.3514 0 3.2486-4.7606 2.5857-6.4882-0.31908-0.83152-0.0933-1.5118 0.50184-1.5118 0.68073 0 0.84794-1.1702 0.45089-3.1555-0.45115-2.2558-0.30145-2.9518 0.525-2.441 3.7778 2.3348-2.91-8.2292-8.4855-13.404-2.0742-1.925-3.1733-2.7125-2.4424-1.75 1.8732 2.4667 0.37617 2.1736-2.8763-0.56312-3.8876-3.2712-25.295-14.066-33.04-16.661-8.3385-2.7935-27.965-7.9862-30.271-8.0088-0.99612-0.01-2.2761 1.1862-2.9245 2.7326-6.3523 15.15-19.208 39.78-24.663 47.25-1.7526 2.4002-1.9643 3.0286-0.67386 2 1.8358-1.4633 1.8374-1.4318 0.0655 1.2906-0.99895 1.5348-2.6651 3.2449-3.7027 3.8002s-1.6222 1.437-1.2994 1.9594 0.18267 0.94983-0.31153 0.94983c-0.75883 0-7.141 7.468-12.091 14.149-1.2358 1.6676-1.1365 1.8499 1 1.8362 1.8984-0.0123 2.0725-0.20886 0.87197-0.98469-1.0734-0.69369-1.1309-0.97373-0.20225-0.98469 0.71376-8e-3 2.4202-1.2264 3.7921-2.7067 1.4118-1.5234 2.2126-1.9574 1.8453-1-0.35698 0.93027-0.18306 1.6914 0.3865 1.6914 1.7228 0 4.2419-3.0809 3.5409-4.3306-0.42772-0.76256-0.18739-0.73451 0.69081 0.0806 1.0474 0.97222 1.08 1.5167 0.1467 2.45-1.9724 1.9724-1.3917 2.6075 2.2888 2.5032 2.1084-0.0598 2.9987-0.41021 2.25-0.88571-0.96498-0.61287-0.94946-0.7902 0.0702-0.80213 0.7333-9e-3 0.9952-0.52307 0.59549-1.1698-0.44695-0.72317-0.27379-0.88273 0.46348-0.42708 0.64735 0.40009 3.2456-0.42874 5.7739-1.8418 5.0408-2.8174 4.1357-0.7066-1.1419 2.6629-2.523 1.6108-2.6213 1.8062-0.61866 1.2289 1.3097-0.37757 6.7097-0.33445 12 0.0958s8.7863 0.97098 7.769 1.2016c-1.6031 0.3634-1.7573 1.0401-1.1564 5.0768 0.38129 2.5616 1.1562 5.22 1.7221 5.9075s0.72332 1.25 0.34988 1.25 0.11825 1.3496 1.0926 2.9991c1.0768 1.8228 2.3736 2.8256 3.3065 2.5566 0.8442-0.24338 4.2349-1.1891 7.5349-2.1017zm-46.5-21.332c0-0.48265 0.74867-1.4952 1.6637-2.25 1.5086-1.2445 1.5519-1.1627 0.46482 0.87756-1.2399 2.327-2.1285 2.8999-2.1285 1.3724zm24.271 0.27339c0.33229-0.33229 1.1948-0.36781 1.9167-0.0789 0.79773 0.31922 0.56078 0.55618-0.60417 0.60416-1.0542 0.0434-1.6448-0.19293-1.3125-0.52522zm-1.7708-2.3958c0.33992-0.55 1.068-1 1.618-1s0.72189 0.45 0.38197 1-1.068 1-1.618 1-0.72189-0.45-0.38197-1zm1-9c2.7627-1.1872 4.5-1.1872 4.5 0 0 0.55-1.4625 0.96837-3.25 0.92971-2.7235-0.0589-2.926-0.2095-1.25-0.92971zm-85.75 33.35c1.7875-0.31492 3.25-0.98568 3.25-1.4906 0-0.53676-8.6178-0.8032-20.75-0.64154-23.073 0.30744-35.077-0.1289-35.802-1.3014-0.63835-1.0329 0.35031-1.5454 4.5516-2.3596 2.5756-0.49913 3.1038-0.40218 2 0.36709-1.2564 0.87558-1.167 1.0478 0.55 1.0607 1.1275 8e-3 2.4775-0.39659 3-0.90001s2.075-1.1354 3.45-1.4044-1.325-0.36908-6-0.22245c-9.5425 0.2993-12.232 0.67836-13.092 1.8452-0.9429 1.2795-10.054 1.1392-14.158-0.21804-4.8549-1.6056-4.9307-3.3972-0.10544-2.4919 2.2515 0.42239 3.4172 0.31585 3.0497-0.27875-0.32716-0.52936 0.17029-0.9407 1.1054-0.91409 5.6923 0.16194 17.994-1.7748 17.61-2.7726-0.30788-0.80152 2.8243-1.081 10.828-0.96641 6.1938 0.0887 10.381-0.17485 9.3045-0.5857-1.469-0.56071-0.74834-0.91267 2.8896-1.4113 2.6656-0.36537 6.2463-0.61944 7.957-0.56462 3.0037 0.0963 3.0247 0.12715 0.61043 0.90032-1.7527 0.56132-0.21993 0.83044 5.1279 0.90032 4.1953 0.0548 9.1986 0.75599 11.118 1.5582 2.2096 0.92323 4.8992 1.2299 7.3289 0.83561 3.1047-0.50382 3.4643-0.76914 1.8815-1.3882-1.3574-0.53089-0.4252-0.81318 3.0433-0.92156 8.2263-0.25705 1.2679-1.5498-8.1531-1.5147-4.4842 0.0167-7.9452-0.30713-7.691-0.71963s-7.5519-0.8213-17.347-0.90844c-20.636-0.1836-21.429-0.13876-22.788 1.2884-0.72415 0.76048 0.86977 0.91659 5.4787 0.53661l6.5-0.53588-5.951 1.078c-4.1946 0.75985-6.7771 0.7662-8.75 0.0215-2.205-0.8323-2.799-0.76995-2.799 0.29376 0 0.97201-0.93444 1.1986-3.3356 0.80897-2.2295-0.3618-4.6337 0.11355-7.25 1.4334-2.5153 1.269-4.6292 1.7063-5.9144 1.2237-1.6532-0.62079-1.3393-0.8797 1.81-1.4931 2.5686-0.50032 3.6442-1.1742 3.301-2.0684-0.28858-0.75205 0.39209-1.6122 1.5722-1.9868 1.5027-0.47695 1.7295-0.87783 0.81583-1.4425-1.8373-1.1355 3.1646-1.8389 11.501-1.6173 3.85 0.10232 7.45-0.0419 8-0.32048s3.25-0.56019 6-0.6258c9.4145-0.22459 19.799-1.6327 18.404-2.4954-0.74008-0.45739-0.98434-1.1929-0.5428-1.6344s1.3285-0.0893 1.971 0.78281c0.70152 0.95215 3.4785 1.8554 6.9509 2.261 7.0418 0.82245 14.717 2.8015 14.717 3.7948 0 0.40135-1.6875 0.46933-3.75 0.15106s-3.4756-0.27809-3.1402 0.0893c0.58048 0.63589 14.404 1.9326 21.926 2.0568 2.6976 0.0445 3.5357 0.47909 3.5357 1.8331 0 1.071-0.53044 1.5712-1.3376 1.2614-0.73571-0.28231-1.0627-0.0685-0.7267 0.47524 0.35289 0.57099-0.71135 0.98855-2.5195 0.98855-2.8744 0-2.9991 0.13135-1.5245 1.606 2.423 2.423 0.3845 4.0448-6.243 4.9669-5.5203 0.76802-5.5978 0.8197-2.2201 1.4798 2.8602 0.55899 3.043 0.72254 1 0.89463-1.375 0.11582-1.9813 0.42297-1.3473 0.68255s4.9538-0.4469 9.5994-1.57 11.327-2.2285 14.847-2.4565 7.6439-0.73233 9.1636-1.1207 3.3196-0.26595 4 0.27197c0.84626 0.66909 2.1846 0.35795 4.237-0.98499 2.9069-1.9021 1.5343-2.04-2.75-0.27617-1.0026 0.41277-1.75 0.279-1.75-0.31323 0-0.56851 0.7875-1.2244 1.75-1.4574s-0.275-0.37856-2.75-0.32333c-4.3701 0.0975-4.509 7e-3 -4.8134-3.1496-0.25191-2.6128 0.0509-3.25 1.5442-3.25 1.0217 0 3.7879-1.8 6.1472-4 4.0715-3.7966 5.1219-4.5319 5.1219-3.5854 0 0.22805-2.5875 2.9962-5.75 6.1514-3.3069 3.2993-4.449 4.8506-2.688 3.6511 4.2021-2.8622 11.645-11.074 10.993-12.128-0.29279-0.47375 0.36259-1.0954 1.4564-1.3814s1.9532-1.1247 1.9098-1.8637c-0.0594-1.0105-0.20401-1.0337-0.58333-0.0936-0.80809 2.0027-2.3377 1.4419-2.3377-0.85699 0-1.462 0.45915-1.9308 1.5-1.5314 0.825 0.31658 1.5 0.15385 1.5-0.36163s0.61693-0.70049 1.371-0.41114 1.6399-0.17478 1.9686-1.0314c0.37386-0.97428 0.0477-1.5575-0.87095-1.5575-0.80774 0-1.4686-0.3876-1.4686-0.86133s1.125-0.64627 2.5-0.38342c2.6879 0.51383 3.4809-1.1649 1-2.1169-0.825-0.31658-1.5-1.0948-1.5-1.7294 0-0.78404 0.5324-0.71397 1.6612 0.21862 1.4982 1.2378 1.6053 1.0784 1.0917-1.6235l-0.56953-2.9959 2.0264 2.4959c1.7457 2.1501 1.9638 2.2188 1.5746 0.49591-0.24851-1.1 0.4304-3.4954 1.5087-5.3232 1.2028-2.0388 1.6026-3.6812 1.0344-4.2494s-1.4152 0.42633-2.1915 2.5732c-1.3815 3.8206-3.7258 4.9603-2.5698 1.2494 1.7282-5.5475 2.5208-6.7337 4.8985-7.3305 1.3944-0.34998 2.5354-1.2304 2.5354-1.9565s0.5625-1.9148 1.25-2.6416 1.9243-2.6714 2.7484-4.3214 2.0616-3.3599 2.75-3.7997 1.2516-1.9023 1.2516-3.25 0.43588-2.4503 0.96862-2.4503 0.70959 0.675 0.39301 1.5-0.12625 1.5 0.42297 1.5c1.3459 0 2.3774-4.4142 1.5409-6.5942-0.50562-1.3176-0.28278-1.6034 0.89715-1.1506 1.1647 0.44694 2.1608-0.73414 3.8597-4.5764 4.2562-9.6262 4.257-9.719 0.0788-9.2505-2.0136 0.22581-7.6422 1.1533-12.508 2.061-9.8435 1.8364-12.802 1.5335-4.0818-0.41794 3.0711-0.68727 5.3736-1.4597 5.1168-1.7166s-3.1042 0.20232-6.3276 1.0203-8.1106 1.7437-10.861 2.057c-4.5411 0.51744 9.0495-3.2308 25-6.895 3.3-0.75807 5.4217-1.4141 4.7148-1.4578-1.0138-0.0627-1.0363-0.54462-0.10661-2.2817 0.74494-1.3919 0.81234-2.3243 0.18319-2.534-0.65304-0.21768-0.62781-1.7089 0.0734-4.3359 0.79999-2.9972 0.76277-4.4941-0.148-5.9524-0.66924-1.0716-1.2168-4.8529-1.2168-8.4029s-0.38744-6.694-0.86098-6.9867c-0.74567-0.46085-16.91 3.1781-21.139 4.7588-0.825 0.30837-2.85 0.76836-4.5 1.0222s-5.7 1.157-9 2.007c-6.7787 1.7461-14.428 2.4908-32.244 3.1391-6.773 0.24647-13.232 0.9389-14.352 1.5387-1.4086 0.75384-10.432 0.90759-29.221 0.49788-14.951-0.32601-35.508-0.75633-45.683-0.95627s-19.175-0.59156-20-0.87026-9.15-1.7339-18.5-3.2337c-11.459-1.8382-17.883-3.3401-19.71-4.6082-1.4902-1.0346-3.763-1.8812-5.0506-1.8812-2.8009 0-7.7211-2.146-7.7321-3.3724-4e-3 -0.47985-0.76918-0.25485-1.6998 0.5s-1.3832 0.85709-1.0057 0.22722c0.56297-0.93954-1.1704-2.3548-2.8841-2.3548-1.0183 0-0.25129 6.2605 1.6615 13.562 1.1439 4.3661 1.9092 9.4008 1.7008 11.188s0.011 3.25 0.48764 3.25 0.60164 0.83478 0.27781 1.8551-0.15768 2.9328 0.36922 4.25 0.98653 2.0416 1.0214 1.6098 0.97599-0.29678 2.0914 0.30017 1.8011 1.4524 1.5239 1.9011 2.0726 1.2697 5.222 1.8246 10.901 2.1459 17.226 3.5356 18.25 3.3002 26.5 4.2456c16.935 1.9406 23.888 3.51 13 2.9346l-7-0.36995 6.3691 0.90918c3.503 0.50006 6.6046 1.1446 6.8923 1.4324 1.5651 1.5651-34.873-3.1155-53.841-6.9162-6.8311-1.3687-12.68-2.4938-12.997-2.5002s-0.38649 1.285-0.15388 2.8699-0.0652 3.1832-0.66174 3.5519c-0.64282 0.39728-0.87094 0.11341-0.56001-0.69687 0.28856-0.75197 0.0869-2.4628-0.44807-3.8019s-1.0012-1.7862-1.0361-0.99359c-0.0463 1.0521-0.46463 0.91709-1.5496-0.5-1.3487-1.7615-1.3786-1.6194-0.32328 1.5352 1.9187 5.7353 3.5157 8.342 4.1934 6.8445 0.32874-0.72645 0.34638-0.30783 0.0392 0.93027-0.54931 2.214 4.631 13.622 10.17 22.397 1.3236 2.0967 2.4065 4.2365 2.4065 4.7553s1.058 2.2152 2.3512 3.7699 2.6424 3.5017 2.9984 4.3267c0.356 0.825 0.50441 0.0613 0.3298-1.6972-0.46894-4.7226 0.93876-3.0631 2.3335 2.7508 1.1107 4.6301 1.4378 5.0338 3.8505 4.7531 2.2674-0.26376 2.6431 0.0731 2.6824 2.4057 0.0252 1.4918 0.36266 3.0293 0.75 3.4167 1.2786 1.2786 0.73234 2.5957-0.82813 1.9969-1.2459-0.4781-1.1992-0.13007 0.25 1.8616 2.2834 3.1381 3.0766 3.143 2.7334 0.0168-0.15068-1.3726 0.1362-2.7492 0.63751-3.059s0.91147 0.26458 0.91147 1.2765c0 1.1259 1.1641 2.2792 3 2.9722 1.9656 0.74195 3 1.8269 3 3.1467 0 1.1078 1.125 2.8992 2.5 3.9808s2.5 2.4642 2.5 3.0726 0.5625 0.99358 1.25 0.85608c0.77198-0.1544 1.2102 0.78302 1.146 2.4513-0.0572 1.4857 0.1678 2.6699 0.5 2.6316 2.0018-0.23118 3.9616 0.35612 5.6629 1.6971 1.7808 1.4036 1.4456 1.4759-4.0589 0.8748-3.3-0.36036-5.6708-0.30719-5.2685 0.11815s2.6523 0.94462 5 1.154 6.5185 0.82402 9.2685 1.366 6.058 1.1869 7.351 1.4333 8.4877 0.72758 15.988 1.0694 14.317 1.0189 15.149 1.5046c1.6602 0.96968 34.552 1.2177 39.762 0.29984zm19.5-5.049c1.8522-0.4738 2.4478-2.301 0.75-2.301-0.55 0-1-0.45-1-1s0.3375-0.92856 0.75-0.84124 1.5569-0.19328 2.5431-0.62354c2.6036-1.1359 3.541 0.38169 1.2642 2.0465-1.7976 1.3144-1.6571 1.4182 1.9182 1.4182 5.3482 0 4.1078 0.61845-2.4755 1.2342-3.025 0.28294-4.7125 0.313-3.75 0.0668zm-78.5-6.9633c0.6875-0.27741 1.8125-0.27741 2.5 0s0.125 0.50439-1.25 0.50439-1.9375-0.22698-1.25-0.50439zm47.5-11.027c0.9625-0.25152 2.5375-0.25152 3.5 0s0.175 0.45733-1.75 0.45733-2.7125-0.2058-1.75-0.45733zm-108.55-27.639c-0.93746-1.4308-1.7045-3.3218-1.7045-4.2023s-0.52367-2.5838-1.1637-3.7852c-1.052-1.9745-1.004-2.0525 0.5-0.81182 0.91505 0.75485 1.6637 2.5052 1.6637 3.8898s0.73692 3.0562 1.6376 3.7148 1.4427 1.7822 1.2045 2.4968c-0.28026 0.84078-1.0347 0.38127-2.1376-1.302zm190-13.422c0.31827-2.0625 0.72939-3.9269 0.91359-4.1431 0.80654-0.94671 1.5398 3.1284 0.97079 5.3954-0.98758 3.9349-2.527 2.9119-1.8844-1.2522zm-199.63-12.667c-0.0434-1.0542 0.19292-1.6448 0.52522-1.3125s0.36781 1.1948 0.0789 1.9167c-0.31922 0.79773-0.55618 0.56078-0.60416-0.60417zm65.159-1.2704c0.95609-0.25029 2.7561-0.25937 4-0.0202s0.46166 0.44398-1.7383 0.45508-3.2178-0.18461-2.2617-0.4349zm3.5381-2.0464c2.352-0.21124 5.952-0.20827 8 7e-3 2.048 0.21487 0.12357 0.38771-4.2764 0.38408s-6.0756-0.17944-3.7236-0.39069zm50.955 0.0776c0.67703-0.27392 2.027-0.29059 3-0.0371s0.41903 0.47766-1.231 0.49804-2.4461-0.18706-1.769-0.46099zm42-4c0.67703-0.27392 2.027-0.29059 3-0.0371s0.41903 0.47766-1.231 0.49804-2.4461-0.18706-1.769-0.46099zm15.352 0.2951c0.22917-0.19846 2.4417-0.6286 4.9167-0.95585 3.0048-0.3973 3.8355-0.30076 2.5 0.29056-1.9099 0.84565-8.2853 1.4175-7.4167 0.66529zm-6.3333-1.3015c0.6875-0.27741 1.8125-0.27741 2.5 0s0.125 0.50439-1.25 0.50439-1.9375-0.22698-1.25-0.50439zm5.981-0.99366c0.67703-0.27392 2.027-0.29059 3-0.0371s0.41903 0.47766-1.231 0.49804-2.4461-0.18706-1.769-0.46099zm5.5399-0.94823c0.33229-0.33229 1.1948-0.36781 1.9167-0.0789 0.79773 0.31922 0.56078 0.55618-0.60417 0.60416-1.0542 0.0434-1.6448-0.19293-1.3125-0.52522zm11 0c0.33229-0.33229 1.1948-0.36781 1.9167-0.0789 0.79773 0.31922 0.56078 0.55618-0.60417 0.60416-1.0542 0.0434-1.6448-0.19293-1.3125-0.52522zm-165.27-25.396c0-0.55 0.87344-1 1.941-1s2.2191 0.45 2.559 1c0.35052 0.56716-0.48962 1-1.941 1-1.4075 0-2.559-0.45-2.559-1zm46.75-1.6623c0.6875-0.27741 1.8125-0.27741 2.5 0s0.125 0.50439-1.25 0.50439-1.9375-0.22698-1.25-0.50439zm-46-1c0.6875-0.27741 1.8125-0.27741 2.5 0s0.125 0.50439-1.25 0.50439-1.9375-0.22698-1.25-0.50439zm159.25-0.7787c0-1.0555 1.9191-1.4989 2.4899-0.57533 0.34546 0.55897-0.0734 1.0163-0.9309 1.0163s-1.559-0.19844-1.559-0.44098zm-25.5 114.94c3.2995-1.555 2.5388-1.5032-6 0.40786l-4 0.89526 3.5 0.0553c1.925 0.0304 4.85-0.58086 6.5-1.3585zm11.75-3.1583c-0.6875-0.27741-1.8125-0.27741-2.5 0s-0.125 0.50439 1.25 0.50439 1.9375-0.22698 1.25-0.50439zm-228.25-2.3377c-0.825-0.53316-1.95-0.96937-2.5-0.96937s-0.325 0.43621 0.5 0.96937 1.95 0.96937 2.5 0.96937 0.325-0.43621-0.5-0.96937zm166.73 0.30701c-0.97297-0.25354-2.323-0.23687-3 0.0371s0.11903 0.48137 1.769 0.46099 2.2039-0.2445 1.231-0.49804zm24.856-0.16602c-0.78327-1.2674-11.212-2.2859-14.365-1.403-2.3356 0.65387-1.9413 0.84535 2.778 1.349 8.922 0.95223 12.152 0.96727 11.587 0.054zm-196.59-1.7224c0-0.1915-0.8721-0.81492-1.938-1.3854-1.6044-0.85866-1.9139-0.71779-1.7982 0.81843 0.0953 1.2659 0.71129 1.7062 1.938 1.3854 0.98902-0.25863 1.7982-0.62693 1.7982-0.81843zm85.5 0.58145c0.78218-1.2656-0.54163-1.2656-2.5 0-1.2927 0.8354-1.2663 0.97149 0.19098 0.98469 0.93004 8e-3 1.9691-0.43469 2.309-0.98469zm242.99-0.98855c0.35034-0.56686-0.0511-0.7345-0.94098-0.39301-1.7324 0.66479-2.0494 1.3816-0.61096 1.3816 0.51754 0 1.2159-0.44485 1.5519-0.98855zm-247.31-0.69456c-0.72188-0.28887-1.5844-0.25335-1.9167 0.0789s0.25834 0.56864 1.3125 0.52522c1.165-0.048 1.4019-0.28494 0.60417-0.60416zm-88.969-1.6543c-1.2548-0.6966-1.9298-1.6528-1.5-2.1249s0.15332-0.49405-0.62013-0.0454c-1.1509 0.66759-1.072 1.0539 0.44113 2.1603 1.0134 0.74105 2.3191 1.3314 2.9015 1.3119s0.0323-0.60537-1.2225-1.302zm154.78 0.95403c0-0.21085-0.9-0.61872-2-0.90638s-2-0.11514-2 0.38337 0.9 0.90638 2 0.90638 2-0.17252 2-0.38337zm194-1.5024c0-0.42229-1.4625-0.54103-3.25-0.26388-3.1182 0.48347-3.1486 0.53089-0.75 1.1693 2.6212 0.69762 4 0.38552 4-0.9054zm-265.81 0.20271c-0.72188-0.28887-1.5844-0.25335-1.9167 0.0789s0.25834 0.56864 1.3125 0.52522c1.165-0.048 1.4019-0.28494 0.60417-0.60416zm87.062-0.0491c-2.3375-0.21053-6.1625-0.21053-8.5 0s-0.425 0.3828 4.25 0.3828 6.5875-0.17226 4.25-0.3828zm-173.65-2.5178c0.39564-0.6875 0.34621-0.91152-0.10983-0.49782s-1.6938-0.0303-2.7504-0.98655-2.6682-1.7448-3.5812-1.7522-1.5528-0.55976-1.4219-1.2275c0.14553-0.74231-0.39467-0.97123-1.3903-0.58918-1.4582 0.55958-1.4339 0.76703 0.2333 1.9861 1.0239 0.74868 2.437 1.1404 3.1403 0.87056s1.2787 0.19675 1.2787 1.037 0.45 1.2495 1 0.9096 1-0.14148 1 0.44098c0 1.4593 1.7245 1.3327 2.6013-0.19098zm217.65 0.58772c-0.6875-0.27741-1.8125-0.27741-2.5 0s-0.125 0.50439 1.25 0.50439 1.9375-0.22698 1.25-0.50439zm140.25-2.3377c1.3025-1.4393 1.3091-1.6667 0.0481-1.6667-0.80309 0-1.2284 0.375-0.94513 0.83334s-0.41149 0.83333-1.544 0.83333-2.059 0.375-2.059 0.83333c0 1.4458 2.9282 0.90349 4.5-0.83333zm-255.01-2.0061c-0.99854-1.1034-2.0479-1.7737-2.332-1.4897s0.35069 1.1725 1.4105 1.9743c2.7041 2.0458 3.0478 1.865 0.92145-0.48466zm68.756-0.72608c-2.3375-0.21053-6.1625-0.21053-8.5 0s-0.425 0.3828 4.25 0.3828 6.5875-0.17226 4.25-0.3828zm19.478 2e-3c-2.0748-0.21647-5.2248-0.21284-7 8e-3s-0.0777 0.39803 3.7723 0.39359 5.3025-0.18518 3.2277-0.40166zm-90.187-6.2037c-0.36254-0.58618-1.1003-1.0661-1.6396-1.0661s-0.40017 0.62961 0.30901 1.3991c1.4357 1.5578 2.3566 1.3276 1.3306-0.33261zm15.209-56.755c-0.9625-0.25152-2.5375-0.25152-3.5 0s-0.175 0.45733 1.75 0.45733 2.7125-0.2058 1.75-0.45733zm-8.019-1.0037c-0.97297-0.25354-2.323-0.23687-3 0.0371s0.11903 0.48137 1.769 0.46099 2.2039-0.2445 1.231-0.49804zm-8.231-1.3644c-2.2-0.45505-5.125-0.79407-6.5-0.75336-3.4714 0.10277 3.4275 1.5415 7.5 1.5641 2.5008 0.0139 2.3344-0.12104-1-0.81073zm-10.25-1.6049c-0.6875-0.27741-1.8125-0.27741-2.5 0s-0.125 0.50439 1.25 0.50439 1.9375-0.22698 1.25-0.50439zm-5.0625-1.0208c-0.72188-0.28887-1.5844-0.25335-1.9167 0.0789s0.25834 0.56864 1.3125 0.52522c1.165-0.048 1.4019-0.28494 0.60417-0.60416zm-3.9375-0.97917c-0.6875-0.27741-1.8125-0.27741-2.5 0s-0.125 0.50439 1.25 0.50439 1.9375-0.22698 1.25-0.50439zm-5.0625-1.0208c-0.72188-0.28887-1.5844-0.25335-1.9167 0.0789s0.25834 0.56864 1.3125 0.52522c1.165-0.048 1.4019-0.28494 0.60417-0.60416zm272.48-4.4188c3.7584-0.65449 6.0757-1.5101 5.7067-2.1071-0.39098-0.63262 0.21288-0.74044 1.6292-0.29091 1.4032 0.44536 2.019 0.33972 1.6356-0.28059-0.63453-1.0267 10.099-6.8184 10.988-5.9291 0.27422 0.27422-1.8914 1.6886-4.8125 3.143s-4.1861 2.344-2.8111 1.9768c4.2302-1.1298 11.312-5.4048 15.264-9.2152 4.7347-4.5642 9.25-11.014 8.3445-11.919-0.37852-0.37852-0.94785 0.30463-1.2652 1.5181s-0.95999 2.2063-1.4281 2.2063-0.41439-1.0125 0.11943-2.25 1.4784-3.5309 2.0992-5.0964c0.78068-1.9688 1.3682-2.4587 1.9058-1.589 0.50491 0.81696 1.1575-0.11253 1.863-2.6536 1.3734-4.9466 1.3931-8.7149 0.0526-10.055-0.57442-0.57442-1.2604-3.8941-1.5244-7.377s-0.84547-6.8154-1.2921-7.4056-1.8152-3.6047-3.0413-6.6989-3.6622-6.9193-5.4135-8.5l-3.1842-2.8741 2.75 3.0547c2.887 3.2069 3.5426 5.4453 1.595 5.4453-0.65381 0-0.36719 0.87051 0.66054 2.0061 2.1007 2.3212 1.9094 2.7084-1.5056 3.0479-3.4612 0.3441-7.2235-1.3701-11.698-5.3298-4.1172-3.6437-7.0701-4.9742-14.802-6.6695-7.9515-1.7434-21.424-2.7832-21.791-1.6818-0.49281 1.4784-8.9439 0.82075-10.589-0.82401-1.1113-1.1113-1.1796-1.7727-0.29314-2.8408 0.63548-0.76571 0.92345-1.6242 0.63993-1.9077s0.0579-0.97332 0.75867-1.5329c1.4581-1.1643 29.774-2.3726 29.774-1.2705 0 0.39837 2.1464 0.97853 4.7698 1.2892s6.6734 1.2208 9 2.0223c5.0197 1.7294 5.5572 0.85606 0.98016-1.5924-5.0632-2.7085-16.435-4.6704-32.424-5.5941-15.479-0.89419-17.765-1.7266-16.633-6.0558 0.60642-2.319-1.5844-3.7884-2.899-1.9445-0.69187 0.97044-0.73641 0.78647-0.15054-0.62189 1.1301-2.7165 0.55633-15.914-0.71065-16.347-0.6689-0.22858-0.64356-0.79618 0.0742-1.661 0.77432-0.933 0.77924-1.506 0.017-1.9771-0.59033-0.36485-0.95899-0.29241-0.81924 0.16097 0.37707 1.2232-3.3934 7.1828-4.9134 7.7661-0.98993 0.37987-0.9272-0.24487 0.25395-2.529l1.5687-3.0334-2.8069 1.7872c-1.5438 0.98297-3.1786 2.2476-3.633 2.8103-0.55801 0.69105-0.97341 0.66943-1.2799-0.0666-0.29059-0.69785-2.331-0.1854-5.6739 1.425-2.871 1.3831-7.5751 2.7161-10.453 2.9622s-5.0098 0.80921-4.7365 1.2513c0.70781 1.1453-10.068 3.2165-12.773 2.4552-1.8274-0.51422-1.9713-0.42079-0.75669 0.49116 1.1664 0.87574 0.74947 0.97772-1.8749 0.45861-2.2516-0.44536-3.632-0.25166-4.1472 0.58193-0.48314 0.78174-3.5793 1.337-8.2706 1.4833-4.1241 0.12861-7.9102 0.48831-8.4134 0.79932s-3.3627 0.67351-6.3544 0.80554-7.3205 0.80216-9.6195 1.4892-7.024 1.3045-10.5 1.3722-9.47 0.21117-13.32 0.3189c-30.066 0.84129-82.983-0.59245-89.934-2.4367-2.1638-0.57406-5.1697-0.79664-6.6797-0.49464-1.583 0.3166-2.9012 0.082-3.1132-0.55415-0.21986-0.65958-3.2642-1.1298-7.5703-1.1692-3.9615-0.0363-7.2027-0.38011-7.2027-0.76408s-0.84921-0.47606-1.8871-0.20463-2.1804 0.019-2.5388-0.56087c-0.36243-0.58642-2.0768-0.80962-3.8629-0.50292-2.55 0.43789-2.9024 0.3157-1.7112-0.59343 1.1782-0.8993 0.77604-1.0017-1.8751-0.47726-2.2049 0.43613-3.1553 0.31202-2.7413-0.35795 0.35542-0.57508-0.68776-1.3158-2.3749-1.6864-1.6548-0.36346-3.0087-1.1276-3.0087-1.698 0-0.57535-0.97673-0.78175-2.1936-0.46354-1.2065 0.3155-4.374-0.13954-7.0388-1.0112-6.151-2.0119-5.6664-2.805 0.56754-0.92885 2.5657 0.77216 4.6649 1.0337 4.6649 0.58125s-1.4625-1.1372-3.25-1.5215c-3.9278-0.84458-20.867-7.4129-22.2-8.6082-2.0351-1.8249-2.3128-0.50204-1.9733 9.3981 0.19336 5.6375 0.40952 13.625 0.48033 17.75 0.10075 5.8685 0.28599 6.7386 0.85153 4 0.68523-3.3183 0.75915-3.1884 1.4236 2.5 0.38547 3.3 1.1884 9.0606 1.7843 12.801s1.0835 8.4539 1.0835 10.474 0.57119 4.4878 1.2693 5.4846c1.1103 1.5852 1.3326 1.1533 1.7748-3.4488 0.44519-4.6332 1.0041-5.7035 4.6835-8.9687 6.0261-5.3477 15.844-8.8421 24.844-8.8421 6.8618 0 9.818-1.3622 4.9788-2.2943-1.9292-0.37157-1.8578-0.45279 0.5-0.56955 1.5125-0.0749 2.75 0.37107 2.75 0.99105 0 0.75007 1.673 0.96648 5 0.64679 2.75-0.26424 5-0.0965 5 0.37277s-0.5625 0.85572-1.25 0.85879-2.866 0.45446-4.841 1.0031l-3.591 0.99752 0.73301 4.7469c0.40316 2.6108 0.65087 4.8401 0.55048 4.9541s-1.9204 0.78895-4.0444 1.5c-3.9612 1.3261-7.0381 4.6881-4.9838 5.4458 0.59335 0.21884 0.86863 1.7898 0.61566 3.5135-0.31666 2.1575-0.10823 2.9017 0.67677 2.4166 0.62389-0.38558 1.1344-0.29439 1.1344 0.20266s2.2493 3.1111 4.9985 5.809 4.9992 5.4454 5 6.1056 0.78897 1.659 1.7515 2.2196c1.6178 0.9423 1.6214 1.0216 0.0473 1.0497-0.93647 0.0167-4.7615-2.8815-8.5-6.4405-6.0579-5.767-6.9333-6.2901-8.0473-4.8089-1.0999 1.4624-1.25 1.3318-1.25-1.0881 0-1.8451 0.38502-2.5122 1.1699-2.0271 0.79765 0.49297 0.95675 0.16751 0.5-1.0228-0.36845-0.96021-0.66992-2.834-0.66992-4.164 0-1.7234-0.55526-2.4182-1.9326-2.4182-1.7772 0-3.0101-1.9899-3.7005-5.9726-0.39057-2.2531-3.6021-4.1936-6.1526-3.7177-2.1846 0.40769-2.2098 0.34272-0.57033-1.4689 1.6666-1.8415 1.6265-1.858-1.4093-0.58161-5.1144 2.1504-11.538 8.4738-10.938 10.768 0.28418 1.0867 0.10866 1.7237-0.39005 1.4154-1.4644-0.90503-1.0401 0.56716 0.65077 2.258 0.85663 0.85663 1.3208 2.1745 1.0314 2.9286-0.2985 0.77786 0.10928 1.3711 0.94248 1.3711 0.80774 0 1.4686 0.47656 1.4686 1.059s0.42742 0.79485 0.94983 0.47199c1.1403-0.70474 3.2741 2.9117 2.2955 3.8904-0.37639 0.37638 0.0543 0.4009 0.95704 0.0545s2.5765-0.12937 3.7195 0.48233c2.2669 1.2132 2.794 0.15773 0.87814-1.7582-0.66-0.66-0.8299-1.2-0.37756-1.2s0.26225-0.675-0.42244-1.5-0.97117-1.5-0.63663-1.5 1.7741 1.7617 3.199 3.915c1.8814 2.843 4.0729 4.5165 8.004 6.112 2.9772 1.2084 5.1364 2.6449 4.7982 3.1922-0.37944 0.61393 0.20767 0.73401 1.5327 0.31347 3.0185-0.95804 8.8292 0.37816 6.9859 1.6065-0.91839 0.61199-0.37512 0.7163 1.6169 0.31042 2.345-0.47779 2.6725-0.36862 1.5 0.5-1.1789 0.87339-0.91133 0.97452 1.25 0.47248 1.6608-0.38578 2.75-0.22252 2.75 0.4122 0 0.57805 0.96464 0.86522 2.1436 0.63817s2.635-0.10914 3.2356 0.26204 2.5609 0.54831 4.3564 0.39363 3.2644 0.12823 3.2644 0.62871 0.5625 0.97058 1.25 1.0447 4.625 0.77729 8.75 1.5626c8.1445 1.5506 14.795 1.1799 36-2.0067 16.089-2.4178 48.927-2.4856 58-0.11976 10.554 2.752 24.547 2.9669 36.371 0.55859 5.5708-1.1347 12.04-2.2732 14.376-2.5301 2.501-0.27502 3.9912-0.88084 3.6248-1.4737-0.38707-0.62629 0.18206-0.75144 1.5061-0.33119 1.3569 0.43065 2.6968 0.10701 3.6967-0.89287 0.86259-0.8626 2.0987-1.5615 2.7469-1.553 0.70704 9e-3 0.57844 0.43549-0.32143 1.0655-1.22 0.85418-1.1267 0.95351 0.5 0.53217 1.1-0.28491 3.2344-0.81239 4.7431-1.1722s2.5238-1.009 2.2557-1.4427c-0.7266-1.1757 2.4772-2.1287 4.892-1.4553 1.518 0.42332 1.7252 0.32234 0.73948-0.36028-1.0342-0.71616-0.47438-1.2439 2.2854-2.1548 2.0103-0.66346 4.3659-2.2911 5.2346-3.617 0.93846-1.4323 2.5476-2.4108 3.9646-2.4108 1.3117 0 2.4369-0.5625 2.5003-1.25s0.2199-1.7 0.34769-2.25 0.30776-2.35 0.39996-4c0.12522-2.2411 0.39975-2.6331 1.0852-1.5496 0.63151 0.99824 0.82612 0.29776 0.62422-2.2468-0.44373-5.5924-7.6356-11.507-15.072-12.395-15.402-1.8397-16.505-1.6081-16.485 3.4604 8e-3 2.052 0.66353 5.531 1.4561 7.731 2.1187 5.8811 1.7308 10.41-1.3211 15.424-3.9623 6.5095-5.9778 6.3941-2.3935-0.13702 2.7114-4.9404 2.9188-5.9508 2.1806-10.621-0.44869-2.8384-1.0685-5.5696-1.3773-6.0693s-0.80692-3.1124-1.1068-5.806c-0.73355-6.5878 1.2948-8.5246 8.8329-8.4346 10.818 0.12922 22.21 4.1902 25.952 9.2517 1.1441 1.5474 2.4534 2.5828 2.9096 2.3008s0.59595 0.096 0.31047 0.83996 0.0836 3.7075 0.82015 6.5856l1.3392 5.233 3.124-3.433c2.1664-2.3808 2.9556-4.0769 2.5747-5.5336-0.3288-1.2573-0.0758-2.1006 0.63017-2.1006 0.6492 0 1.0388-1.0116 0.86663-2.25-0.34283-2.4656-3.1846-4.6195-6.3129-4.7848-1.5376-0.0813-1.6532-0.26287-0.5-0.78544 0.825-0.37384 1.5792-1.5797 1.6761-2.6797 0.16425-1.8658 0.0897-1.8825-1.1102-0.25-3.112 4.2338-4.2158 1.2663-3.6268-9.75 0.38205-7.1451 1.3312-7.8883 6.3859-5.0001 2.2963 1.312 4.0679 2.8451 3.937 3.4068s0.43159 0.76438 1.25 0.45033 1.4949-1.0854 1.5033-1.714 0.45153-0.46801 0.98469 0.35699c0.64625 1 0.97448 1.0833 0.98469 0.25 8e-3 -0.6875 0.49187-1.25 1.0743-1.25s0.7809 0.45 0.44098 1c-0.37482 0.60648 1.2744 1.063 4.191 1.16 3.9236 0.13057 4.1646 0.22972 1.309 0.53853-1.925 0.20818-4.175 0.65714-5 0.99769s-2.0625 0.52848-2.75 0.41762c-0.79406-0.12804-1.3071 1.1822-1.4065 3.5923-0.0861 2.0866-0.244 5.0313-0.35092 6.5438-0.17415 2.4638 0.12839 2.7427 2.9065 2.6797 2.6383-0.0598 2.8025-0.1985 1.1009-0.92971-2.4436-1.0501-1.9304-1.1239 9.9411-1.4298 4.932-0.1271 8.0707 0.11442 7 0.53864-1.2068 0.47811 0.5179 0.76614 4.5589 0.76135 12.726-0.0151 24.791 4.8564 28.81 11.633 1.304 2.1984 2.1192 3.2097 1.8116 2.2472-0.95926-3.0018 0.2512-1.92 2.2378 2 2.462 4.8579 3.3379 10.853 2.2282 15.25-0.55569 2.2019-0.9544 2.7582-1.0751 1.5-0.10547-1.1-0.77321 0.11123-1.4838 2.6916s-2.2393 5.8958-3.397 7.3675-1.8817 3.037-1.609 3.4783c0.62423 1.01-4.48 5.1073-5.5436 4.4499-0.43193-0.26695-3.1915 0.63479-6.1325 2.0039s-4.7623 2.4936-4.0475 2.499 2.6578-0.69256 4.3178-1.551 3.5429-1.3858 4.1842-1.172-1.0766 1.2155-3.8178 2.226c-6.9599 2.5658-7.9758 3.8427-2.4839 3.1222 6.2154-0.81543 3.9626 0.0181-5 1.85-4.125 0.84312-11.212 1.5333-15.75 1.5338-7.6866 7.6e-4 -10.382 0.96855-6.6682 2.3938 2.7412 1.0519 14.692 0.62906 20.418-0.7224 6.9395-1.6379 14-4.7275 14-6.1262 0-1.4286 10.927-9.9103 13.218-10.26 1.6882-0.25764 1.7081-0.0436 0.30766 3.3082-2.2687 5.4298-7.3019 11.252-11.64 13.465-3.2747 1.6706-3.886 1.7433-3.886 0.46215 0-0.83617 0.525-1.5203 1.1667-1.5203s0.94949-0.21717 0.68405-0.48261c-0.52825-0.52826-7.0452 1.6158-7.8507 2.5829-1.0723 1.2874-4.9806 2.9031-7.1843 2.97-2.1613 0.0656-2.1825 0.12228-0.31769 0.85009 1.7061 0.66588 1.5235 0.84946-1.25 1.2565-1.7864 0.26219-3.248 0.10465-3.248-0.35009s-0.92656-0.82681-2.059-0.82681-1.8402 0.35412-1.5727 0.78693-3.1918 0.86536-7.6872 0.9612c-5.4648 0.11651-7.6777-0.13921-6.6773-0.77162 1.2236-0.77355 1.1318-0.93051-0.50377-0.86152-3.8253 0.16137-6.4617 1.3503-5.7007 2.5708 1.3089 2.0992 21.27 2.8832 30.865 1.2122zm-10.933-0.55398c0.67703-0.27392 2.027-0.29059 3-0.0371s0.41903 0.47766-1.231 0.49804-2.4461-0.18706-1.769-0.46099zm32.352-9.6047c0.22917-0.14336 1.5417-1.1559 2.9167-2.25l2.5-1.9893-1.905 2.25c-1.0477 1.2375-2.3602 2.25-2.9167 2.25s-0.82418-0.1173-0.59502-0.26066zm3.9956-24.156c-0.0434-1.0542 0.19293-1.6448 0.52522-1.3125s0.36781 1.1948 0.0789 1.9167c-0.31922 0.79773-0.55618 0.56078-0.60416-0.60417zm12.517-2.0833c0.83062-4.9607 1.4093-5.7592 1.3891-1.9167-8e-3 1.6042-0.47512 3.5917-1.0371 4.4167-0.73213 1.0748-0.83192 0.36606-0.35203-2.5zm-125.58-2.0242c0.69572-0.83829 1.4709-1.3182 1.7226-1.0665 0.69349 0.6935-0.71555 2.5907-1.9241 2.5907-0.6631 0-0.58723-0.57378 0.20152-1.5242zm-183.51-1.4644c-0.35034-0.56686 0.0511-0.7345 0.94098-0.39301 1.7324 0.66479 2.0494 1.3816 0.61096 1.3816-0.51754 0-1.2159-0.44485-1.5519-0.98855zm139.99-16.042c-4.95-0.40486-16.142-0.79661-24.871-0.87055s-16.604-0.56273-17.5-1.0862c-1.7305-1.0109 9.2696-1.4729 26.371-1.1076 8.7956 0.18787 34.59 2.8718 35.417 3.6852 0.56915 0.55987-8.5432 0.2685-19.417-0.62084zm-166.89-2.5552c-0.33472-0.87227-0.18682-2.3348 0.32867-3.25 0.72493-1.2871 0.91735-0.92781 0.84942 1.5859-0.0988 3.6573-0.30271 3.9452-1.1781 1.6641zm29.41 0.83594c8e-3 -0.4125 0.45153-1.425 0.98469-2.25 0.78387-1.213 0.9723-1.0694 0.98469 0.75 8e-3 1.2375-0.43469 2.25-0.98469 2.25s-0.99311-0.3375-0.98469-0.75zm81.58-0.40498c0.64605-1.0453 7.1135-1.1246 7.7494-0.095 0.25479 0.4125-1.5021 0.79276-3.9042 0.84502s-4.1325-0.28524-3.8452-0.75zm133.48-3.2617c-0.0434-1.0542 0.19293-1.6448 0.52522-1.3125s0.36781 1.1948 0.0789 1.9167c-0.31922 0.79773-0.55618 0.56078-0.60416-0.60417zm-13.565-6.203c-0.90056-1.3744-1.4367-3.2598-1.1915-4.1897 0.35329-1.3395 0.47-1.2715 0.56191 0.32768 0.0638 1.1101 1.2899 2.7307 2.7248 3.6013 2.0531 1.2458 2.2822 1.7082 1.0755 2.1713-0.96116 0.36884-2.1442-0.34406-3.1706-1.9106zm-187.51-8.8213c0-0.24254 0.45-0.7191 1-1.059s1-0.14148 1 0.44098-0.45 1.059-1 1.059-1-0.19844-1-0.44098zm-19.729-1.1632c0.33229-0.33229 1.1948-0.36781 1.9167-0.0789 0.79773 0.31922 0.56078 0.55618-0.60417 0.60416-1.0542 0.0434-1.6448-0.19292-1.3125-0.52522zm23.979-0.0852c0.9625-0.25152 2.5375-0.25152 3.5 0s0.175 0.45733-1.75 0.45733-2.7125-0.2058-1.75-0.45733zm16.25-0.23517-6-0.5755 9.2016-0.73566c5.2247-0.41771 10.195-0.33706 11.5 0.18661 1.9679 0.78966 1.699 0.93139-1.8699 0.98566-2.2925 0.0349-4.7675 0.20987-5.5 0.38889s-4.0318 0.0665-7.3318-0.25zm138.75 0.21877c-1.2375-0.23836-2.25-0.80995-2.25-1.2702s0.7875-0.63506 1.75-0.38845 4.675 0.82242 8.25 1.2796l6.5 0.8312-6-9e-3c-3.3-5e-3 -7.0125-0.20439-8.25-0.44274zm-112.98-0.89844c0.33229-0.33229 1.1948-0.36781 1.9167-0.0789 0.79773 0.31922 0.56078 0.55618-0.60417 0.60416-1.0542 0.0434-1.6448-0.19292-1.3125-0.52522zm-53.54-1.0518c0.67703-0.27392 2.027-0.29059 3-0.037s0.41903 0.47766-1.231 0.49804-2.4461-0.18706-1.769-0.46099zm18.769-1.8009c21.148-3.3235 25.882-3.737 35.891-3.135 5.6894 0.34221 13.455 0.18104 17.257-0.35815 8.5358-1.2106 54.108-2.5652 53.177-1.5807-0.74047 0.78362-6.588 1.1281-23.275 1.3712-8.2003 0.11945-10.664 0.44595-9.8093 1.3002 0.84037 0.84037 5.5662 0.88906 17.95 0.18494 16.867-0.95903 33.724-0.45867 26.309 0.78093-1.925 0.3218-13.625 0.69037-26 0.81903s-24.75 0.40943-27.5 0.62395-14.225-0.0571-25.5-0.60353c-12.947-0.62747-22.342-0.64656-25.5-0.0518-2.75 0.51795-8.825 1.1941-13.5 1.5025l-8.5 0.56077 9-1.4144zm149.25-0.20539c0.6875-0.27741 1.8125-0.27741 2.5 0s0.125 0.50439-1.25 0.50439-1.9375-0.22698-1.25-0.50439zm-4.4792-0.94189c0.33229-0.33229 1.1948-0.36781 1.9167-0.0789 0.79773 0.31922 0.56078 0.55618-0.60417 0.60416-1.0542 0.0434-1.6448-0.19292-1.3125-0.52522zm-4-1c0.33229-0.33229 1.1948-0.36781 1.9167-0.0789 0.79773 0.31922 0.56078 0.55618-0.60417 0.60416-1.0542 0.0434-1.6448-0.19292-1.3125-0.52522zm90.729-2.4098c-1.0553-0.69179-0.46242-0.79289 2-0.34104 4.3128 0.79139 5.1263 1.36 1.9167 1.3396-1.3292-8e-3 -3.0917-0.4578-3.9167-0.99861zm-110.75-0.67541c0.9625-0.25152 2.5375-0.25152 3.5 0s0.175 0.45733-1.75 0.45733-2.7125-0.2058-1.75-0.45733zm-7.519-2.9666c0.67703-0.27392 2.027-0.29059 3-0.037s0.41903 0.47766-1.231 0.49804-2.4461-0.18706-1.769-0.46099zm88.519-2.9027c-0.6875-0.74632-1.232-2.1634-1.21-3.1491 0.029-1.2972 0.46489-1.0082 1.5783 1.0462 1.7151 3.1648 1.5385 4.1729-0.3683 2.1029zm1.4354-5.1824c-0.448-1.2326-0.50285-2.7454-0.12188-3.3618s0.24566-1.408-0.30067-1.759c-1.4746-0.94743-2.5883-5.1382-1.3655-5.1382 1.831 0 3.222 3.9641 2.9082 8.2882-0.25448 3.507-0.44194 3.8368-1.1202 1.9707zm-250.94-6.9212c0.6875-0.27741 1.8125-0.27741 2.5 0s0.125 0.50439-1.25 0.50439-1.9375-0.22698-1.25-0.50439zm-12.75-3.3377c-0.90129-0.58246-1.0246-0.97549-0.30902-0.98469 0.65504-8e-3 1.4691 0.43469 1.809 0.98469 0.7673 1.2415 0.42112 1.2415-1.5 0zm-1.7347-4.1958c-2.3291-1.1924-4.0423-2.3605-3.807-2.5957 0.60556-0.60557 8.4848 3.1338 8.516 4.0415 0.0345 1.0015 0.12616 1.0296-4.7089-1.4458zm272.5 109.2c0.68696-1.1 0.82176-2 0.29956-2s-1.2472 0.48175-1.6111 1.0706c-0.93994 1.5209-8.6667 0.1183-10.206-1.8526-0.6875-0.88009-1.25-1.326-1.25-0.99083s-0.27314 1.3212-0.60699 2.1911c-0.47542 1.2389 0.12068 1.6034 2.75 1.6815 1.8464 0.0548 4.482 0.45997 5.857 0.90032s2.7292 0.8455 3.0094 0.90032 1.0715-0.80032 1.7585-1.9003zm-257.19-4.5873c-0.78843-2.152-1.4652-3.4173-1.504-2.8119-0.0979 1.5299 2.0734 7.5887 2.5491 7.113 0.21359-0.2136-0.25673-2.1491-1.0452-4.301zm288.61 0.9042c-0.72188-0.28887-1.5844-0.25335-1.9167 0.0789s0.25834 0.56864 1.3125 0.52522c1.165-0.048 1.4019-0.28494 0.60417-0.60416zm-40.788-5.5516c2.0114-1.3433 7.0838-0.78987 10.745 1.1724 3.4557 1.8522 8.4395 1.817 7.2848-0.0514-0.30128-0.48747 2.9663-0.92573 7.2612-0.97392s10.059-0.43805 12.809-0.86638c4.4027-0.68576 3.8484-0.79474-4.6405-0.9124-6.7349-0.0933-12.593-0.90071-19.436-2.6788-10.3-2.6763-14.123-2.823-13.62-0.52276 0.16653 0.76154-0.13529 1.6554-0.67072 1.9863s-1.2369 1.9472-1.5588 3.5916-0.2901 2.315 0.0707 1.49 1.151-1.8306 1.756-2.2347zm5.6001-2.7339c0-0.53273 0.675-0.70959 1.5-0.39301s1.5 0.75246 1.5 0.96862-0.675 0.39301-1.5 0.39301-1.5-0.43588-1.5-0.96862zm-255.62-0.90638c-0.35139-1.7569-0.84734-2.986-1.1021-2.7312s-0.15257 1.8776 0.22711 3.6062c0.90076 4.1011 1.7086 3.2932 0.875-0.875zm243.62 2.816c0-0.58246-0.45-0.7809-1-0.44098s-1 0.81648-1 1.059 0.45 0.44098 1 0.44098 1-0.47656 1-1.059zm41.776-2.6679c-2.048-0.21488-5.648-0.21785-8-7e-3s-0.67643 0.38706 3.7236 0.39069 6.3244-0.16921 4.2764-0.38408zm8.4111-0.95622c-0.72188-0.28887-1.5844-0.25335-1.9167 0.0789s0.25834 0.56864 1.3125 0.52522c1.165-0.048 1.4019-0.28494 0.60417-0.60416zm-2.6614-2.4064c12.399-2.2921 22.72-10.699 24.053-19.592 1.7236-11.493-2.8089-23.048-10.58-26.969-2.475-1.249-6.75-2.7392-9.5-3.3115-5.9836-1.2453-26.332-1.6167-32.119-0.58627l-4.1187 0.73346-1.7172 10.657c-0.94449 5.8616-2.7931 15.805-4.108 22.097s-2.2497 11.581-2.0772 11.753 4.5495 1.2554 9.7268 2.4065 10.763 2.4535 12.413 2.8942c4.4245 1.1817 11.356 1.1496 18.026-0.0835zm-30.276-0.57282c-0.6875-0.27741-1.8125-0.27741-2.5 0s-0.125 0.50439 1.25 0.50439 1.9375-0.22698 1.25-0.50439zm-5.0625-1.0208c-0.72188-0.28887-1.5844-0.25335-1.9167 0.0789s0.25834 0.56864 1.3125 0.52522c1.165-0.048 1.4019-0.28494 0.60417-0.60416zm55.812-4.9671c0-0.72338-3.854 1.6049-4.5674 2.7593-0.37335 0.6041 0.50159 0.32492 1.9443-0.62038s2.6231-1.9078 2.6231-2.1389zm-218-1.8671c0-1.4434-2.4885-1.3948-3.9591 0.0774-0.58556 0.5862-0.0173 0.99415 1.5101 1.0841 1.4219 0.0837 2.449-0.4034 2.449-1.1615zm45.5 0.14952c-2.0096-0.86379-5.311-1.0985-10-0.71086l-7 0.57864 8.5 0.5637c4.675 0.31003 9.175 0.62992 10 0.71086s0.15-0.43312-1.5-1.1423zm103.43-5.3822c0.0387-1.7875 0.52886-3.25 1.0893-3.25s0.76541 1.0125 0.45541 2.25 0.0765 3.1246 0.859 4.1935c1.3557 1.852 1.4554 1.7944 2.1187-1.2256 0.38282-1.743 0.4349-3.5916 0.11572-4.1081s-0.19715-1.0899 0.27119-1.2744 1.1642-1.6106 1.5463-3.1692c0.45662-1.8624 0.33825-2.6134-0.34529-2.191-0.57204 0.35354-1.0401 0.16625-1.0401-0.41621s0.40186-1.059 0.89301-1.059 1.1432-0.65208 1.4491-1.4491c0.39046-1.0175 0.0756-1.2647-1.057-0.83006-1.0278 0.39441-1.3663 0.21958-0.93276-0.48183 0.37419-0.60547 0.18639-1.4061-0.41733-1.7792-0.70635-0.43655-0.97955 0.16272-0.76632 1.6809 0.25993 1.8506-0.42322 2.7363-3.1686 4.1078-1.925 0.96164-3.0928 1.7491-2.595 1.75s0.19727 0.78905-0.66771 1.7516c-1.2505 1.3915-1.3936 2.672-0.69854 6.25 0.48079 2.475 0.92538 4.95 0.98799 5.5 0.23848 2.0949 1.836-3.1518 1.903-6.25zm-243.33 3.0208c-0.3323-0.33229-0.56864 0.25834-0.52522 1.3125 0.048 1.165 0.28494 1.4019 0.60416 0.60417 0.28887-0.72188 0.25335-1.5844-0.0789-1.9167zm117.9 1.7752c4.8302-0.75235 4.7454-0.77996-2.5-0.8135-4.125-0.0191-9.975 0.30742-13 0.72559-5.4275 0.75029-5.3946 0.761 2.5 0.8135 4.4 0.0292 10.25-0.29726 13-0.72559zm36.276-0.11169c-1.1171-0.65104-2.8776-0.67209-5-0.0598-3.1566 0.91071-3.0939 0.94726 1.7242 1.0049 3.8077 0.0455 4.5888-0.17983 3.2758-0.94508zm-11.776-1.4933c0-0.24254-0.45-0.44098-1-0.44098s-1 0.47656-1 1.059 0.45 0.7809 1 0.44098 1-0.81648 1-1.059zm94-4.5c0-1.6825-0.38965-2.8182-0.86589-2.5239-0.80557 0.49786-0.36612 5.5829 0.48247 5.5829 0.21088 0 0.38342-1.3766 0.38342-3.059zm1.6042 0.32985c-0.33229-0.33229-0.56864 0.25834-0.52522 1.3125 0.048 1.165 0.28494 1.4019 0.60416 0.60417 0.28887-0.72188 0.25335-1.5844-0.0789-1.9167zm7.8311-10.166c0.3043-0.49236-0.0441-1.1245-0.77432-1.4046s-1.3276 0.12265-1.3276 0.89521c0 1.5746 1.2556 1.8789 2.1019 0.50944zm87.282-6.841c-0.22985-1.5201-0.42406-0.51375-0.43157 2.2362s0.18056 3.9937 0.41792 2.7638 0.24351-3.4799 0.0136-5zm-14.062 1.4672c-0.27393-0.67703-0.48137 0.11903-0.46099 1.769s0.2445 2.2039 0.49804 1.231 0.23687-2.323-0.0371-3zm-71.726-4.04c0.0387-0.44496-0.37971-0.5309-0.92971-0.19098s-0.96837 1.604-0.92971 2.809c0.0678 2.1124 0.10112 2.1192 0.92971 0.19098 0.47269-1.1 0.89106-2.3641 0.92971-2.809zm-2.6396-0.69236c0.28785-1.1008 0.11534-1.7492-0.38337-1.441s-0.90674 1.2088-0.90674 2.0014c0 2.0698 0.6795 1.7746 1.2901-0.5604zm87.314-2.7278c-0.33229-0.33229-0.56864 0.25834-0.52522 1.3125 0.048 1.165 0.28494 1.4019 0.60416 0.60417 0.28887-0.72188 0.25335-1.5844-0.0789-1.9167zm-347.1-7.2708c-0.39084-3.3675-0.93562-5.8977-1.2106-5.6227s-0.18022 3.2552 0.21062 6.6227 0.93562 5.8977 1.2106 5.6227 0.18022-3.2552-0.21062-6.6227zm29.994-1.0202c-1.0462-3.2963-2.1201-2.2203-1.666 1.6693 0.33778 2.8933 0.6195 3.3034 1.3602 1.9798 0.5138-0.9181 0.65141-2.5602 0.30581-3.6491zm8.8919 0.45956c1.8433-0.46265 2.1346-1.11 1.7977-3.9957-0.25834-2.2129-0.93725-3.4436-1.8996-3.4436-0.97749 0-1.2789 0.56986-0.86792 1.6409 0.70872 1.8469-0.14974 5.3591-1.3099 5.3591-0.41769 0-0.56129-1.35-0.31912-3 0.32298-2.2006 0.0389-3-1.0662-3-0.82858 0-1.7834 0.72169-2.1219 1.6038-0.35345 0.92109-1.2543 1.3586-2.1164 1.0278-1.027-0.39408-0.80067 0.37124 0.71654 2.4234 1.2736 1.7226 2.807 2.7732 3.6023 2.468 0.76163-0.29226 2.3747-0.77983 3.5845-1.0835zm-4.7182-8.1054c-0.77906-0.77906-3.6337 0.91133-3.0725 1.8194 0.34777 0.5627 1.1628 0.46285 2.0184-0.24728 0.78933-0.65508 1.2637-1.3625 1.0541-1.5721zm306.33 1.2885c0-0.20765-0.7875-0.99515-1.75-1.75-1.5861-1.2439-1.6214-1.2085-0.37756 0.37756 1.3064 1.6658 2.1276 2.1955 2.1276 1.3724zm-342.34-6.8915c-0.27393-0.67703-0.48137 0.11903-0.46099 1.769s0.2445 2.2039 0.49804 1.231 0.23687-2.323-0.037-3zm321.34 1.269c1.06-0.68503-0.11329-0.93916-4-0.86637-4.595 0.0861-5.0063 0.22862-2.5 0.86637 4.2652 1.0853 4.8206 1.0853 6.5 0zm-48.5-1c-0.33992-0.55-0.14148-1 0.44098-1s1.059-0.9 1.059-2c0-2.3732-2.5234-2.6842-3.393-0.41821-1.0394 2.7087-0.67109 4.4182 0.95203 4.4182 0.85746 0 1.2809-0.45 0.94098-1zm21.5-2c-0.825-0.53316-2.4-0.93141-3.5-0.88501-1.6476 0.0695-1.5596 0.22543 0.5 0.88501 3.5357 1.1323 4.7521 1.1323 3 0zm6.1875 0.31689c-0.72188-0.28887-1.5844-0.25335-1.9167 0.0789s0.25834 0.56864 1.3125 0.52522c1.165-0.048 1.4019-0.28494 0.60417-0.60416zm24.812-4.7699c0-0.63939-7.2984-2.5819-7.8034-2.0769-0.22874 0.22874 1.096 0.85095 2.9438 1.3827 4.0658 1.17 4.8597 1.2834 4.8597 0.6942zm-10.812-3.2301c-0.72188-0.28887-1.5844-0.25335-1.9167 0.0789s0.25834 0.56864 1.3125 0.52522c1.165-0.048 1.4019-0.28494 0.60417-0.60416zm-7.4565-1.0099c-0.97297-0.25354-2.323-0.23687-3 0.037s0.11903 0.48137 1.769 0.46099 2.2039-0.2445 1.231-0.49804zm-16.467-1.0109c-1.2299-0.23736-3.4799-0.24351-5-0.0136s-0.51375 0.42406 2.2362 0.43157 3.9937-0.18056 2.7638-0.41792zm-122.55-11.437c11.115-0.64995 20.046-1.4466 19.845-1.7703s1.627-0.43006 4.0602-0.23633c2.8864 0.22982 5.2739-0.20463 6.8694-1.25 1.3449-0.88123 3.2487-1.5574 4.2305-1.5026 1.235 0.069 1.0148 0.34641-0.71482 0.90032l-2.5 0.80064 2.5833 0.0997c1.4208 0.0548 2.9218-0.23782 3.3356-0.65032s2.1762-0.83684 3.9167-0.94297c8.4723-0.51667 18.664-2.443 18.664-3.5276 0-0.5464 0.7076-0.72192 1.5724-0.39004s2.5524 0.0679 3.75-0.5867 3.3704-1.0737 4.8284-0.93144 2.9516-0.22794 3.3191-0.82264 1.0344-0.85501 1.4818-0.57846c1.1894 0.73507 11.184-2.8923 18.045-6.5489 3.8327-2.0428 6.3868-4.1656 7.1869-5.973 0.68265-1.5422 1.5957-2.5849 2.029-2.3171 1.7129 1.0586 0.66095-4.5227-1.3293-7.0529-2.1286-2.7061-13.198-8.5783-16.171-8.5783-0.87677 0-1.841-0.39944-2.1427-0.88764-0.96616-1.5633-21.725-6.4938-34.069-8.0921-28.995-3.7541-91.641-5.3364-119.6-3.0209-18.029 1.4929-30.769 2.9248-35.897 4.0347-2.475 0.53568-7.3295 1.1732-10.788 1.4166-7.2427 0.50987-29.551 5.8604-26.713 6.407 1.354 0.26075 0.80585 0.73908-1.9212 1.6766-2.0986 0.72148-4.4372 1.0733-5.1969 0.78178s-1.3812-0.0319-1.3812 0.57698-0.59656 1.107-1.3257 1.107-2.3486 1.0888-3.5988 2.4196-3.5395 2.9442-5.0873 3.5853c-3.4638 1.4348-4.5274 5.0519-2.5881 8.802 1.3632 2.6362 11.582 9.2397 11.615 7.5055 8e-3 -0.44682 0.34592-0.3168 0.75 0.28895 1.0445 1.5658 12.288 5.5922 13.894 4.9757 0.73717-0.28288 1.3403-0.12728 1.3403 0.34578 0 1.2818 13.039 3.9775 16.5 3.4113 2.0142-0.32949 2.5679-0.186 1.6851 0.43666-1.7578 1.2398 15.613 3.6261 20.041 2.7532 2.5624-0.50512 2.9478-0.39949 1.7737 0.4862-1.1859 0.89458-0.7736 1.0415 1.9689 0.70173 1.9079-0.23638 4.97-0.0153 6.8046 0.49124 4.926 1.3601 40.749 3.3318 55.726 3.0671 7.15-0.12634 22.094-0.76148 33.209-1.4114zm68.478-2.542c-0.72188-0.28888-1.5844-0.25335-1.9167 0.0789s0.25834 0.56864 1.3125 0.52522c1.165-0.048 1.4019-0.28494 0.60417-0.60417zm11.8-3.2879c1.169-0.73909 1.0084-0.90433-0.75-0.77188-1.2306 0.0927-2.2374 0.52278-2.2374 0.95573 0 1.0435 1.159 0.97217 2.9874-0.18385zm26.702-8.779c-0.25153-0.9625-0.45733-0.175-0.45733 1.75s0.2058 2.7125 0.45733 1.75 0.25152-2.5375 0-3.5zm-276.72-12.75c0-0.55-0.43621-0.325-0.96937 0.5s-0.96937 1.95-0.96937 2.5 0.43621 0.325 0.96937-0.5 0.96937-1.95 0.96937-2.5zm256.03-17.5c-0.825-0.53316-1.05-1.0295-0.5-1.103s-0.35-0.45011-2-0.83692c-4.3691-1.0242-5.3751 0.034-1.3993 1.4719 4.256 1.5392 5.8536 1.731 3.8993 0.46802zm-22.812-5.6831c-0.72188-0.28888-1.5844-0.25335-1.9167 0.0789s0.25834 0.56864 1.3125 0.52522c1.165-0.048 1.4019-0.28494 0.60417-0.60417zm-8.1875-2.3692 2.5-0.8529-2.5 0.10126c-1.375 0.0557-3.175-0.14264-4-0.44076-2.2897-0.82741-23.925-2.7553-30.921-2.7553-11.101 0-5.4921 1.6733 8.1345 2.4267 7.3074 0.40404 15.311 1.092 17.786 1.5288 5.7407 1.0131 6.0083 1.0129 9-8e-3zm7.1875 0.36915c-0.72188-0.28888-1.5844-0.25335-1.9167 0.0789s0.25834 0.56864 1.3125 0.52522c1.165-0.048 1.4019-0.28494 0.60417-0.60417zm-163.94-0.97917c-0.6875-0.27741-1.8125-0.27741-2.5 0s-0.125 0.50439 1.25 0.50439 1.9375-0.22698 1.25-0.50439zm39.75-2.2956 13.5-0.74133-15-0.0951c-8.25-0.0523-19.5 0.51554-25 1.2619l-10 1.3571 11.5-0.5206c6.325-0.28632 17.575-0.85419 25-1.2619zm71.25-0.74784c-1.2375-0.23836-3.2625-0.23836-4.5 0s-0.225 0.43337 2.25 0.43337 3.4875-0.19502 2.25-0.43337zm-27-1.0393c-5.0875-0.18149-13.412-0.18149-18.5 0s-0.925 0.32999 9.25 0.32999 14.338-0.1485 9.25-0.32999zm7.5 270.08c0.6875-0.27741 1.8125-0.27741 2.5 0s0.125 0.50439-1.25 0.50439-1.9375-0.22698-1.25-0.50439zm-77-1c0.6875-0.27741 1.8125-0.27741 2.5 0s0.125 0.50439-1.25 0.50439-1.9375-0.22698-1.25-0.50439zm-21.479-2.9419c0.33229-0.33229 1.1948-0.36781 1.9167-0.0789 0.79773 0.31922 0.56078 0.55618-0.60417 0.60416-1.0542 0.0434-1.6448-0.19293-1.3125-0.52522z"/>
 </g>
</svg>
