<svg xmlns="http://www.w3.org/2000/svg" xmlns:xlink="http://www.w3.org/1999/xlink" version="1.1" x="0px" y="0px" viewBox="0 0 70 87.5" style="enable-background:new 0 0 70 70;" xml:space="preserve"><path d="M65.7353516,25.5986328h-9.1035156c-0.5522461,0-1,0.4472656-1,1v35.6142578c0,0.5527344,0.4477539,1,1,1h9.1035156  c0.5522461,0,1-0.4472656,1-1V26.5986328C66.7353516,26.0458984,66.2875977,25.5986328,65.7353516,25.5986328z   M64.7353516,61.2128906h-7.1035156V27.5986328h7.1035156V61.2128906z"/><path d="M48.0336914,39.7597656h-9.1035156c-0.5522461,0-1,0.4472656-1,1v21.453125c0,0.5527344,0.4477539,1,1,1h9.1035156  c0.5522461,0,1-0.4472656,1-1v-21.453125C49.0336914,40.2070313,48.5859375,39.7597656,48.0336914,39.7597656z   M47.0336914,61.2128906h-7.1035156v-19.453125h7.1035156V61.2128906z"/><path d="M30.3320313,25.5986328h-9.1035156c-0.5522461,0-1,0.4472656-1,1v35.6142578c0,0.5527344,0.4477539,1,1,1h9.1035156  c0.5522461,0,1-0.4472656,1-1V26.5986328C31.3320313,26.0458984,30.8842773,25.5986328,30.3320313,25.5986328z   M29.3320313,61.2128906h-7.1035156V27.5986328h7.1035156V61.2128906z"/><path d="M12.6303711,39.7597656H3.5268555c-0.5522461,0-1,0.4472656-1,1v21.453125c0,0.5527344,0.4477539,1,1,1h9.1035156  c0.5522461,0,1-0.4472656,1-1v-21.453125C13.6303711,40.2070313,13.1826172,39.7597656,12.6303711,39.7597656z   M11.6303711,61.2128906H4.5268555v-19.453125h7.1035156V61.2128906z"/><path d="M61.3945313,6.7871094c-3.6420898,0-6.6054688,2.8681641-6.6054688,6.3945313  c0,0.9009399,0.1956787,1.7578125,0.5444336,2.5360718l-7.8862915,5.6659546  c-1.0588379-0.6991577-2.336792-1.1092529-3.7123413-1.1092529c-1.6919556,0-3.2324219,0.6243286-4.4024048,1.6407471  l-6.8413696-6.6173706c0.241394-0.6635132,0.3795166-1.3737183,0.3795166-2.1161499  c0-3.5263672-2.9633789-6.3945313-6.6054688-6.3945313s-6.6054688,2.8681641-6.6054688,6.3945313  c0,0.7424316,0.1381226,1.4526367,0.3795166,2.1161499l-6.9318237,6.704895  c-1.1810913-1.0685425-2.7616577-1.7282715-4.5018921-1.7282715C4.9633789,20.2744141,2,23.1425781,2,26.6689453  s2.9633789,6.3945313,6.6054688,6.3945313s6.6054688-2.8681641,6.6054688-6.3945313  c0-1.1281128-0.3059692-2.1871338-0.8377075-3.1081543l6.6813965-6.4626465  c1.2096558,1.505188,3.0928345,2.4790039,5.2105103,2.4790039s4.0008545-0.9738159,5.2105103-2.4790039l6.5632324,6.3483887  c-0.5742798,0.9475708-0.9094849,2.0465698-0.9094849,3.2224121c0,3.5263672,2.9633789,6.3945313,6.6054688,6.3945313  s6.6054688-2.8681641,6.6054688-6.3945313c0-1.4708252-0.520752-2.8231201-1.3860474-3.9046021l7.4795532-5.3737793  c1.2116089,1.3369751,2.9837646,2.1865845,4.9606934,2.1865845C65.0366211,19.5771484,68,16.7080078,68,13.1816406  S65.0366211,6.7871094,61.3945313,6.7871094z M8.6054688,31.0634766C6.065918,31.0634766,4,29.0917969,4,26.6689453  s2.065918-4.3945313,4.6054688-4.3945313s4.6054688,1.9716797,4.6054688,4.3945313S11.1450195,31.0634766,8.6054688,31.0634766z   M26.2651367,17.5771484c-2.5395508,0-4.6054688-1.9716797-4.6054688-4.3955078c0-2.4228516,2.065918-4.3945313,4.6054688-4.3945313  s4.6054688,1.9716797,4.6054688,4.3945313C30.8706055,15.6054688,28.8046875,17.5771484,26.2651367,17.5771484z   M43.7348633,31.0634766c-2.5395508,0-4.6054688-1.9716797-4.6054688-4.3945313s2.065918-4.3945313,4.6054688-4.3945313  s4.6054688,1.9716797,4.6054688,4.3945313S46.2744141,31.0634766,43.7348633,31.0634766z M61.3945313,17.5771484  c-2.5395508,0-4.6054688-1.9716797-4.6054688-4.3955078c0-2.4228516,2.065918-4.3945313,4.6054688-4.3945313  S66,10.7587891,66,13.1816406C66,15.6054688,63.934082,17.5771484,61.3945313,17.5771484z"/><text x="0" y="85" fill="#000000" font-size="5px" font-weight="bold" font-family="'Helvetica Neue', Helvetica, Arial-Unicode, Arial, Sans-serif">Created by Vectorstall</text><text x="0" y="90" fill="#000000" font-size="5px" font-weight="bold" font-family="'Helvetica Neue', Helvetica, Arial-Unicode, Arial, Sans-serif">from the Noun Project</text></svg>