<svg xmlns="http://www.w3.org/2000/svg" data-name="Layer 1" viewBox="0 0 128 160" x="0px" y="0px"><title>Miscellaneous 205_Expandlines</title><path d="M115.934,21.51615a2.07288,2.07288,0,0,0-.61273-1.01761l-22.72754-20A2.00053,2.00053,0,0,0,91.27246,0H18.5459A6.33458,6.33458,0,0,0,12,6.25v116c0,3.1167,2.998,5.75,6.5459,5.75h90.9082A6.29787,6.29787,0,0,0,116,122V22A1.89744,1.89744,0,0,0,115.934,21.51615ZM108.47559,20H94.7998C93.28223,20,92,19.084,92,18V6.27Zm.97852,104H18.5459C17.13574,124,16,123.04248,16,122.25V6.25A2.35851,2.35851,0,0,1,18.5459,4H88V18c0,3.30859,3.05078,6,6.7998,6H112v98A2.35521,2.35521,0,0,1,109.4541,124Z"/><path d="M26,17H70a2,2,0,0,0,0-4H26a2,2,0,0,0,0,4Z"/><path d="M34.73633,73.44971l-5.79,4.71777-1.37793-1.74121a1.99948,1.99948,0,1,0-3.13672,2.48047l2.63568,3.33342a2.04877,2.04877,0,0,0,2.83209.31014l7.36426-6a2.00007,2.00007,0,1,0-2.52734-3.10059Z"/><path d="M34.73633,89.44971l-5.79,4.71777-1.37793-1.74121a1.99948,1.99948,0,1,0-3.13672,2.48047l2.6357,3.33344a2.03586,2.03586,0,0,0,2.83208.31012l7.36426-6a2.00007,2.00007,0,1,0-2.52734-3.10059Z"/><path d="M102,105H46a2,2,0,0,0,0,4h56a2,2,0,0,0,0-4Z"/><path d="M34.73633,105.44971l-5.79,4.71777-1.37793-1.74121a1.99948,1.99948,0,1,0-3.13672,2.48047l2.63573,3.33348a2.01474,2.01474,0,0,0,2.832.31008l7.36426-6a2.00007,2.00007,0,1,0-2.52734-3.10059Z"/><path d="M46,93H74.75293l-4-4H46a2,2,0,0,0,0,4Z"/><path d="M102,89H97.72028a7.85765,7.85765,0,0,1,.041,4H102a2,2,0,0,0,0-4Z"/><path d="M102,73H83.24707l4,4H102a2,2,0,0,0,0-4Z"/><path d="M46,77l12.7529,0a8.83128,8.83128,0,0,1-2.47317-4H46.2464A2.08838,2.08838,0,0,0,44,75,2.0001,2.0001,0,0,0,46,77Z"/><path d="M102,57H67.2a25.91743,25.91743,0,0,1-1.494,3.09991A8.12273,8.12273,0,0,1,66.918,60a7.99062,7.99062,0,0,1,3.88031,1H102a2,2,0,0,0,0-4Z"/><path d="M102,41H68.51013a26.88926,26.88926,0,0,1,.5918,4H102a2,2,0,0,0,0-4Z"/><path d="M60.321,27H78a2,2,0,0,0,0-4H54.54919A26.93844,26.93844,0,0,1,60.321,27Z"/><path d="M24.80646,26.59619A25.96227,25.96227,0,0,1,30.01221,23H26a1.99426,1.99426,0,0,0-1.19354,3.59619Z"/><path d="M61.2088,68.0368l-.02618.02618a4.03626,4.03626,0,0,0,0,5.709l23.04492,23.0459a4.03744,4.03744,0,0,0,5.709,0l2.88086-2.88037V93.937a4.03626,4.03626,0,0,0,0-5.709L69.77246,65.18213a4.03744,4.03744,0,0,0-5.709,0l-.02655.02655-4.285-4.28516a22.53173,22.53173,0,1,0-2.82806,2.82813Zm5.73553-.02606,23.04492,23.0459a.04115.04115,0,0,1,0,.05176l-2.93359,2.88086L64.01074,70.8916ZM42.5,65A18.5,18.5,0,1,1,61,46.5,18.52065,18.52065,0,0,1,42.5,65Z"/><path d="M52.60059,41.80078a2.001,2.001,0,0,0-2.7998-.40137L40.85742,48.1001l-2.166-3.43066a2,2,0,0,0-3.38281,2.13477l3.32217,5.263a2.03735,2.03735,0,0,0,2.89072.53336l10.67773-8A2.00035,2.00035,0,0,0,52.60059,41.80078Z"/><text x="0" y="143" fill="#000000" font-size="5px" font-weight="bold" font-family="'Helvetica Neue', Helvetica, Arial-Unicode, Arial, Sans-serif">Created by WEBTECHOPS LLP</text><text x="0" y="148" fill="#000000" font-size="5px" font-weight="bold" font-family="'Helvetica Neue', Helvetica, Arial-Unicode, Arial, Sans-serif">from the Noun Project</text></svg>