<svg xmlns="http://www.w3.org/2000/svg" viewBox="0 0 64 80" x="0px" y="0px"><g><rect x="16" y="52" width="14" height="8"/><path d="M33,59h3v1H32V58A1,1,0,0,0,33,59Z"/><path d="M32,37.61l2,.63V51H33a1,1,0,0,0-1,1V51a1,1,0,0,0-1-1H15a1,1,0,0,0-1,1v9H12V38.24l2-.63V38a9,9,0,0,0,9.29,9A9.2,9.2,0,0,0,32,37.71Z"/><path d="M42,45.88V48H37a1,1,0,0,0-1,1V38.86l1.09.34A7,7,0,0,1,42,45.88Z"/><rect x="38" y="50" width="4" height="10"/><path d="M25.98,9A4.959,4.959,0,0,0,28,5V4H19a5,5,0,0,0-5,5Z"/><path d="M12,12a1,1,0,0,0,1,1H33a1,1,0,0,0,0-2H13A1,1,0,0,0,12,12Z"/><rect x="58" y="53" width="2" height="4"/><rect x="44" y="54" width="6" height="2"/><path d="M29.7,7a7.1,7.1,0,0,1-.96,2H32V7Z"/><rect x="52" y="50" width="4" height="10"/><rect x="34" y="53" width="2" height="4"/><path d="M14,15v6a9,9,0,0,0,18,0V15Zm3,3a2,2,0,1,1,2,2A2.006,2.006,0,0,1,17,18Zm6,8a4.993,4.993,0,0,1-3.31-1.25l1.33-1.5a3.058,3.058,0,0,0,3.96,0l1.33,1.5A4.993,4.993,0,0,1,23,26Zm4-6a2,2,0,1,1,2-2A2.006,2.006,0,0,1,27,20Z"/><path d="M10,18a2.015,2.015,0,0,0,2,2V16A2.006,2.006,0,0,0,10,18Z"/><path d="M23,45a7.008,7.008,0,0,0,7-7V36.99l-1.9-.6A2.986,2.986,0,0,1,26,33.53V31.57a10.68,10.68,0,0,1-6,0v1.96a2.982,2.982,0,0,1-2.11,2.86l-1.89.6V38a6.982,6.982,0,0,0,7,7Z"/><path d="M34,16v4a2.015,2.015,0,0,0,2-2A2.006,2.006,0,0,0,34,16Z"/><path d="M4,60h6V38.86l-1.09.34A6.964,6.964,0,0,0,4,45.88Z"/></g><text x="0" y="79" fill="#000000" font-size="5px" font-weight="bold" font-family="'Helvetica Neue', Helvetica, Arial-Unicode, Arial, Sans-serif">Created by Komkrit Noenpoempisut</text><text x="0" y="84" fill="#000000" font-size="5px" font-weight="bold" font-family="'Helvetica Neue', Helvetica, Arial-Unicode, Arial, Sans-serif">from the Noun Project</text></svg>