<svg xmlns="http://www.w3.org/2000/svg" xmlns:xlink="http://www.w3.org/1999/xlink" version="1.1" x="0px" y="0px" viewBox="0 0 64 80" enable-background="new 0 0 64 64" xml:space="preserve"><metadata><?xpacket begin="&#65279;" id="W5M0MpCehiHzreSzNTczkc9d"?><x:xmpmeta xmlns:x="adobe:ns:meta/" x:xmptk="Adobe XMP Core 5.3-c011 66.145661, 2012/02/06-14:56:27        "/><?xpacket end="w"?></metadata><g><g><g><g><g><g><path d="M32,40c-1.104,0-2-0.896-2-2v-4c0-1.104,0.896-2,2-2s2,0.896,2,2v4C34,39.104,33.104,40,32,40z"/></g><g><path d="M32,48c-0.53,0-1.04-0.21-1.41-0.58C30.21,47.04,30,46.53,30,46c0-0.53,0.21-1.04,0.59-1.42        c0.74-0.74,2.08-0.74,2.82,0C33.79,44.96,34,45.48,34,46s-0.21,1.04-0.58,1.41C33.04,47.79,32.52,48,32,48z"/></g></g><g><path d="M32,36c-1.104,0-2-0.896-2-2s0.896-2,2-2c3.309,0,6-2.691,6-6s-2.691-6-6-6s-6,2.691-6,6c0,1.104-0.896,2-2,2       s-2-0.896-2-2c0-5.514,4.486-10,10-10s10,4.486,10,10S37.514,36,32,36z"/></g></g></g><g><path d="M32,64C14.355,64,0,49.645,0,32S14.355,0,32,0s32,14.355,32,32S49.645,64,32,64z M32,4C16.561,4,4,16.561,4,32     s12.561,28,28,28s28-12.561,28-28S47.439,4,32,4z"/></g></g></g><text x="0" y="79" fill="#000000" font-size="5px" font-weight="bold" font-family="'Helvetica Neue', Helvetica, Arial-Unicode, Arial, Sans-serif">Created by Izwar Muis</text><text x="0" y="84" fill="#000000" font-size="5px" font-weight="bold" font-family="'Helvetica Neue', Helvetica, Arial-Unicode, Arial, Sans-serif">from the Noun Project</text></svg>