<svg xmlns:dc="http://purl.org/dc/elements/1.1/" xmlns:cc="http://creativecommons.org/ns#" xmlns:rdf="http://www.w3.org/1999/02/22-rdf-syntax-ns#" xmlns:svg="http://www.w3.org/2000/svg" xmlns="http://www.w3.org/2000/svg" xmlns:sodipodi="http://sodipodi.sourceforge.net/DTD/sodipodi-0.dtd" xmlns:inkscape="http://www.inkscape.org/namespaces/inkscape" version="1.1" x="0px" y="0px" viewBox="0 0 100 125"><g transform="translate(0,-952.36218)"><path style="text-indent:0;text-transform:none;direction:ltr;block-progression:tb;baseline-shift:baseline;color:#000000;enable-background:accumulate;" d="m 66.659954,962.36216 0,4.8207 3.92346,0 0,-4.8207 z m -4.96561,2.0187 -2.78934,2.7117 3.46368,3.4046 2.78932,-2.7116 z m 13.85468,0 -3.46367,3.4047 2.78933,2.7116 3.46367,-3.4046 z m -6.92734,5.6945 c -2.16685,0 -3.92345,1.7267 -3.92345,3.8566 0,2.1299 1.7566,3.8566 3.92345,3.8566 2.16686,0 3.92346,-1.7267 3.92346,-3.8566 0,-2.1299 -1.7566,-3.8566 -3.92346,-3.8566 z m -11.77035,1.9283 0,3.8566 4.9043,0 0,-3.8566 z m 18.63638,0 0,3.8566 4.90431,0 0,-3.8566 z m -36.47583,2.8924 c -0.94176,0.059 -1.83993,0.5931 -2.32955,1.386 L 5.3253742,1027.0507 c -1.3308501,-1.119 -3.4742601,-1.2511 -4.50692014,-0.3025 -1.0917,1.0731 -1.09119,3.0261 0.001,4.0987 8.28064014,8.1303 16.97944994,11.362 25.44112994,11.5096 8.46169,0.1474 16.5723,-2.5845 24.46027,-5.6945 7.88798,-3.1101 15.57896,-6.62 23.08093,-8.4364 7.50196,-1.8163 14.65367,-2.0001 22.038766,1.2955 1.40528,0.6381 3.27507,-0.042 3.91866,-1.4264 0.64359,-1.3838 -0.0561,-3.219 -1.46652,-3.8462 -0.82332,-0.3674 -1.65893,-0.6683 -2.48281,-0.9641 L 74.016354,990.65396 c -0.59107,-0.8914 -1.71347,-1.4127 -2.78934,-1.2956 -0.79488,0.09 -1.54483,0.5143 -2.02303,1.1449 l -10.63622,13.95004 -16.82794,-28.14104 c -0.55017,-0.9163 -1.64791,-1.4862 -2.72802,-1.4162 z m 23.3568,2.4405 -3.46368,3.4047 2.78934,2.7117 3.46366,-3.4046 z m 12.506,0 -2.78933,2.7118 3.46367,3.4046 2.78933,-2.7117 z m -8.21473,3.3444 0,4.8208 3.92346,0 0,-4.8208 z m -28.87416,4.9413 3.83151,16.27014 -8.30668,0 0,5.7848 9.68601,0 0.91956,3.8567 -14.52902,0 0,5.7848 15.87772,0 0.91956,3.8567 -20.72074,0 0,5.7848 22.10007,0 1.01152,4.3086 c -7.56274,2.3849 -15.36138,5.3332 -22.22271,5.3037 -5.51024,-0.096 -10.90892,-1.6069 -16.5213998,-5.6946 L 37.785764,985.62316 z m 8.27603,9.4005 c 5.942,10.49274 11.80971,19.70154 18.05401,30.12964 -3.38555,1.2 -6.71144,2.5452 -9.99254,3.8867 z m 24.27637,3.6155 1.80846,5.18234 -1.56324,0 0,5.7849 3.58627,0 0.67434,1.9284 -6.22234,0 0,5.7848 8.24537,0 1.4713,4.2182 c -3.07657,0.4096 -5.74673,1.0016 -8.4906,1.7475 l -8.03081,-13.4378 z m 10.9121,13.34754 6.28364,9.4004 c -1.10521,-0.1329 -2.06182,-0.1612 -3.06519,-0.1808 z" fill="#000000" fill-opacity="1" stroke="none" marker="none" visibility="visible" display="inline" overflow="visible"/></g><text x="0" y="115" fill="#000000" font-size="5px" font-weight="bold" font-family="'Helvetica Neue', Helvetica, Arial-Unicode, Arial, Sans-serif">Created by karina</text><text x="0" y="120" fill="#000000" font-size="5px" font-weight="bold" font-family="'Helvetica Neue', Helvetica, Arial-Unicode, Arial, Sans-serif">from the Noun Project</text></svg>