<svg xmlns:dc="http://purl.org/dc/elements/1.1/" xmlns:cc="http://creativecommons.org/ns#" xmlns:rdf="http://www.w3.org/1999/02/22-rdf-syntax-ns#" xmlns:svg="http://www.w3.org/2000/svg" xmlns="http://www.w3.org/2000/svg" xmlns:sodipodi="http://sodipodi.sourceforge.net/DTD/sodipodi-0.dtd" xmlns:inkscape="http://www.inkscape.org/namespaces/inkscape" style="" xml:space="preserve" version="1.1" viewBox="0 0 64 80" x="0px" y="0px" fill-rule="evenodd" clip-rule="evenodd" stroke-linejoin="round" stroke-miterlimit="2"><path style="" d="M 10.622,20.827 C 9.604,19.485 9,17.812 9,16 c 0,-4.415 3.585,-8 8,-8 4.415,0 8,3.585 8,8 0,1.812 -0.604,3.485 -1.622,4.827 1.444,0.566 2.777,1.411 3.917,2.501 C 28.664,22.486 30.276,22 32,22 c 1.724,0 3.336,0.486 4.705,1.328 1.14,-1.09 2.473,-1.935 3.917,-2.501 C 39.604,19.485 39,17.812 39,16 c 0,-4.415 3.585,-8 8,-8 4.415,0 8,3.585 8,8 0,1.812 -0.604,3.485 -1.622,4.827 1.525,0.598 2.927,1.507 4.107,2.688 C 59.736,25.765 61,28.817 61,32 v 2 c 0,1.591 -0.632,3.117 -1.757,4.243 C 58.117,39.368 56.591,40 55,40 H 44.944 C 46.845,42.124 48,44.927 48,48 v 2 c 0,1.591 -0.632,3.117 -1.757,4.243 C 45.117,55.368 43.591,56 42,56 36.678,56 27.322,56 22,56 20.409,56 18.883,55.368 17.757,54.243 16.632,53.117 16,51.591 16,50 c 0,-0.63 0,-1.304 0,-2 0,-3.073 1.155,-5.876 3.056,-8 H 9 C 7.409,40 5.883,39.368 4.757,38.243 3.632,37.117 3,35.591 3,34 c 0,-0.63 0,-1.304 0,-2 0,-3.183 1.264,-6.235 3.515,-8.485 1.18,-1.181 2.582,-2.09 4.107,-2.688 z M 44,48 v 2 c 0,0.53 -0.211,1.039 -0.586,1.414 C 43.039,51.789 42.53,52 42,52 36.678,52 27.322,52 22,52 21.47,52 20.961,51.789 20.586,51.414 20.211,51.039 20,50.53 20,50 c 0,-0.63 0,-1.304 0,-2 0,-4.418 3.582,-8 8,-8 2.6,0 5.4,0 8,0 4.418,0 8,3.582 8,8 z m 5,-24 h -4 c -2.018,0 -3.958,0.763 -5.433,2.128 C 40.474,27.533 41,29.205 41,31 c 0,1.849 -0.559,3.569 -1.517,5 H 55 c 0.53,0 1.039,-0.211 1.414,-0.586 C 56.789,35.039 57,34.53 57,34 V 32 C 57,29.878 56.157,27.843 54.657,26.343 53.157,24.843 51.122,24 49,24 Z M 19,24 H 15 C 12.878,24 10.843,24.843 9.343,26.343 7.843,27.843 7,29.878 7,32 c 0,0.696 0,1.37 0,2 0,0.53 0.211,1.039 0.586,1.414 C 7.961,35.789 8.47,36 9,36 H 24.517 C 23.559,34.569 23,32.849 23,31 23,29.205 23.526,27.533 24.433,26.128 22.958,24.763 21.018,24 19,24 Z m 13,2 c 2.76,0 5,2.24 5,5 0,2.76 -2.24,5 -5,5 -2.76,0 -5,-2.24 -5,-5 0,-2.76 2.24,-5 5,-5 z M 47,12 c 2.208,0 4,1.792 4,4 0,2.208 -1.792,4 -4,4 -2.208,0 -4,-1.792 -4,-4 0,-2.208 1.792,-4 4,-4 z m -30,0 c 2.208,0 4,1.792 4,4 0,2.208 -1.792,4 -4,4 -2.208,0 -4,-1.792 -4,-4 0,-2.208 1.792,-4 4,-4 z" fill="#000000"/><text x="0" y="79" fill="#000000" font-size="5px" font-weight="bold" font-family="'Helvetica Neue', Helvetica, Arial-Unicode, Arial, Sans-serif">Created by Ranah Pixel Studio</text><text x="0" y="84" fill="#000000" font-size="5px" font-weight="bold" font-family="'Helvetica Neue', Helvetica, Arial-Unicode, Arial, Sans-serif">from the Noun Project</text></svg>