<svg xmlns="http://www.w3.org/2000/svg" data-name="Capa 1" viewBox="0 0 200 250" x="0px" y="0px"><title>icons</title><path d="M163.63,134.18a2.5,2.5,0,1,1-3.44,3.63l-39.3-37.2-11.45,8.85a13.53,13.53,0,0,1-17.07,0l-11.44-8.85a2.47,2.47,0,0,1-.23.27L41.63,137.82a2.5,2.5,0,1,1-3.43-3.63L77,97.54,29.22,60.61a12.22,12.22,0,0,0-.74,4.16v70.46A12.27,12.27,0,0,0,40.74,147.5H161.08a12.27,12.27,0,0,0,12.27-12.27V64.77a12.22,12.22,0,0,0-.74-4.16L124.9,97.52Z"/><path d="M106.39,105.51,170,56.33a12.22,12.22,0,0,0-8.89-3.83H40.74a12.22,12.22,0,0,0-8.89,3.83l63.58,49.18A8.67,8.67,0,0,0,106.39,105.51Z"/><text x="0" y="215" fill="#000000" font-size="5px" font-weight="bold" font-family="'Helvetica Neue', Helvetica, Arial-Unicode, Arial, Sans-serif">Created by Sara Novovitch</text><text x="0" y="220" fill="#000000" font-size="5px" font-weight="bold" font-family="'Helvetica Neue', Helvetica, Arial-Unicode, Arial, Sans-serif">from the Noun Project</text></svg>