<svg xmlns="http://www.w3.org/2000/svg" xmlns:xlink="http://www.w3.org/1999/xlink" version="1.1" x="0px" y="0px" viewBox="0 0 48 60" enable-background="new 0 0 48 48" xml:space="preserve"><g><path d="M43.4,20.4c-0.5-2.7-1.6-5.3-3.1-7.6l2.9-2.9l-5.1-5.1l-2.9,2.9c-2.3-1.6-4.9-2.6-7.6-3.1V0.5h-7.2v4.1   c-2.7,0.5-5.3,1.6-7.6,3.1L9.9,4.8L4.8,9.9l2.9,2.9c-1.6,2.3-2.6,4.9-3.1,7.6H0.5v7.2h4.1c0.5,2.7,1.6,5.3,3.1,7.6l-2.9,2.9   l5.1,5.1l2.9-2.9c2.3,1.6,4.9,2.6,7.6,3.1v4.1h7.2v-4.1c2.7-0.5,5.3-1.6,7.6-3.1l2.9,2.9l5.1-5.1l-2.9-2.9c1.6-2.3,2.6-4.9,3.1-7.6   h4.1v-7.2C47.5,20.4,43.4,20.4,43.4,20.4z M24,33.5c-5.2,0-9.5-4.2-9.5-9.5s4.2-9.5,9.5-9.5s9.5,4.2,9.5,9.5S29.2,33.5,24,33.5z"/></g><text x="0" y="63" fill="#000000" font-size="5px" font-weight="bold" font-family="'Helvetica Neue', Helvetica, Arial-Unicode, Arial, Sans-serif">Created by Creative Stall</text><text x="0" y="68" fill="#000000" font-size="5px" font-weight="bold" font-family="'Helvetica Neue', Helvetica, Arial-Unicode, Arial, Sans-serif">from the Noun Project</text></svg>